<svg width="392" height="216" viewBox="0 0 392 216" fill="none" xmlns="http://www.w3.org/2000/svg">
<rect y="0.438965" width="392" height="215.122" rx="12" fill="#151515"/>
<rect x="1.19512" y="1.63409" width="389.61" height="212.732" rx="10.8049" stroke="white" stroke-opacity="0.1" stroke-width="2.39024"/>
<path fill-rule="evenodd" clip-rule="evenodd" d="M27.3741 34.1099C27.6305 33.8414 28.056 33.8315 28.3246 34.0878L33.2545 38.7936C33.3874 38.9205 33.4626 39.0962 33.4626 39.2799C33.4626 39.4636 33.3874 39.6393 33.2545 39.7662L28.3246 44.472C28.056 44.7283 27.6305 44.7184 27.3741 44.4499C27.1178 44.1813 27.1277 43.7558 27.3962 43.4994V43.4994C29.8036 41.2015 29.8036 37.3583 27.3962 35.0604V35.0604C27.1277 34.804 27.1178 34.3785 27.3741 34.1099Z" fill="#C738B6"/>
<path fill-rule="evenodd" clip-rule="evenodd" d="M19.1211 39.2799C19.1211 38.9086 19.4221 38.6076 19.7933 38.6076H32.5662C32.9375 38.6076 33.2385 38.9086 33.2385 39.2799C33.2385 39.6512 32.9375 39.9522 32.5662 39.9522H19.7933C19.4221 39.9522 19.1211 39.6512 19.1211 39.2799Z" fill="#C738B6"/>
<path d="M39.3951 40.117C39.3815 39.5297 39.4681 39.0475 39.6549 38.6707C39.845 38.2938 40.0996 38.0154 40.4188 37.8354C40.7379 37.6521 41.0893 37.5604 41.473 37.5604C41.8125 37.5604 42.1266 37.6334 42.4152 37.7794C42.7038 37.922 43.0331 38.1563 43.4032 38.4822C43.6341 38.6826 43.8225 38.8286 43.9685 38.9202C44.1145 39.0085 44.2775 39.0526 44.4574 39.0526C44.7324 39.0526 44.9514 38.9508 45.1144 38.7471C45.2808 38.54 45.3605 38.2344 45.3538 37.8304H46.6422C46.6558 38.4211 46.5676 38.9049 46.3774 39.2818C46.1907 39.6587 45.936 39.9371 45.6135 40.117C45.2943 40.297 44.9446 40.387 44.5644 40.387C44.2214 40.387 43.9057 40.314 43.6171 40.168C43.3285 40.0186 43.0009 39.7843 42.6342 39.4652C42.3965 39.2581 42.2064 39.1121 42.0638 39.0272C41.9212 38.9389 41.7599 38.8948 41.58 38.8948C41.3185 38.8948 41.1012 38.9898 40.9281 39.18C40.7583 39.3667 40.6768 39.6791 40.6836 40.117H39.3951ZM52.7919 32.2028L49.4306 44.6904H48.0708L51.4321 32.2028H52.7919ZM54.0854 43.1218V35.2992H55.5471V36.5724H55.6439C55.8068 36.1412 56.0734 35.8051 56.4434 35.564C56.8135 35.3196 57.2566 35.1974 57.7727 35.1974C58.2955 35.1974 58.7335 35.3196 59.0866 35.564C59.4431 35.8085 59.7063 36.1446 59.876 36.5724H59.9575C60.1442 36.1548 60.4413 35.8221 60.8488 35.5742C61.2562 35.323 61.7417 35.1974 62.3053 35.1974C63.0149 35.1974 63.5938 35.4197 64.042 35.8645C64.4935 36.3093 64.7193 36.9798 64.7193 37.8762V43.1218H63.1966V38.0188C63.1966 37.4891 63.0523 37.1055 62.7637 36.8678C62.4751 36.6301 62.1305 36.5113 61.7298 36.5113C61.2341 36.5113 60.8488 36.6641 60.5737 36.9697C60.2987 37.2718 60.1612 37.6606 60.1612 38.1359V43.1218H58.6435V37.922C58.6435 37.4976 58.5111 37.1564 58.2463 36.8984C57.9815 36.6403 57.6369 36.5113 57.2125 36.5113C56.9239 36.5113 56.6573 36.5877 56.4129 36.7405C56.1718 36.8899 55.9766 37.0987 55.8272 37.3669C55.6812 37.6351 55.6082 37.9458 55.6082 38.2989V43.1218H54.0854ZM67.4427 46.0553C67.2152 46.0553 67.0081 46.0366 66.8214 45.9993C66.6347 45.9653 66.4954 45.928 66.4038 45.8872L66.7705 44.6395C67.0489 44.7142 67.2967 44.7464 67.514 44.7363C67.7313 44.7261 67.9231 44.6446 68.0895 44.4918C68.2593 44.339 68.4087 44.0895 68.5377 43.7432L68.7261 43.2237L65.8639 35.2992H67.4936L69.4748 41.3699H69.5563L71.5374 35.2992H73.1722L69.9484 44.1659C69.799 44.5733 69.6089 44.9179 69.378 45.1997C69.1471 45.4849 68.8721 45.6988 68.553 45.8414C68.2338 45.984 67.8637 46.0553 67.4427 46.0553ZM79.0557 43.1218V44.4154H72.4299V43.1218H79.0557ZM80.7236 46.0553V35.2992H82.2107V36.5673H82.338C82.4263 36.4044 82.5536 36.2159 82.72 36.002C82.8864 35.7881 83.1172 35.6014 83.4126 35.4418C83.708 35.2788 84.0985 35.1974 84.584 35.1974C85.2155 35.1974 85.7791 35.3569 86.2748 35.6761C86.7705 35.9952 87.1593 36.4553 87.4411 37.0562C87.7263 37.6572 87.8689 38.3804 87.8689 39.2258C87.8689 40.0712 87.728 40.7961 87.4462 41.4004C87.1644 42.0014 86.7773 42.4648 86.285 42.7908C85.7927 43.1133 85.2308 43.2746 84.5993 43.2746C84.1239 43.2746 83.7352 43.1948 83.433 43.0352C83.1342 42.8757 82.8999 42.6889 82.7302 42.475C82.5604 42.2611 82.4297 42.071 82.338 41.9046H82.2464V46.0553H80.7236ZM82.2158 39.2105C82.2158 39.7605 82.2956 40.2427 82.4552 40.6569C82.6147 41.0711 82.8456 41.3954 83.1478 41.6296C83.45 41.8605 83.82 41.9759 84.258 41.9759C84.713 41.9759 85.0933 41.8554 85.3988 41.6143C85.7044 41.3699 85.9353 41.0389 86.0915 40.6212C86.251 40.2036 86.3308 39.7334 86.3308 39.2105C86.3308 38.6944 86.2527 38.231 86.0966 37.8202C85.9438 37.4093 85.7129 37.0851 85.4039 36.8474C85.0984 36.6098 84.7164 36.4909 84.258 36.4909C83.8167 36.4909 83.4432 36.6047 83.1376 36.8322C82.8354 37.0596 82.6063 37.3771 82.4501 37.7845C82.2939 38.1919 82.2158 38.6673 82.2158 39.2105ZM89.575 43.1218V35.2992H91.0468V36.5419H91.1283C91.2709 36.1209 91.5221 35.7898 91.882 35.5488C92.2453 35.3043 92.6561 35.1821 93.1145 35.1821C93.2096 35.1821 93.3216 35.1855 93.4506 35.1923C93.583 35.1991 93.6866 35.2075 93.7613 35.2177V36.6743C93.7002 36.6573 93.5915 36.6386 93.4353 36.6183C93.2792 36.5945 93.123 36.5826 92.9668 36.5826C92.6069 36.5826 92.2861 36.659 92.0043 36.8118C91.7258 36.9612 91.5052 37.17 91.3422 37.4382C91.1792 37.703 91.0977 38.0052 91.0977 38.3447V43.1218H89.575ZM98.094 43.2797C97.3607 43.2797 96.7207 43.1116 96.174 42.7755C95.6274 42.4394 95.203 41.9691 94.9008 41.3648C94.5986 40.7604 94.4476 40.0542 94.4476 39.2462C94.4476 38.4347 94.5986 37.7251 94.9008 37.1174C95.203 36.5096 95.6274 36.0377 96.174 35.7015C96.7207 35.3654 97.3607 35.1974 98.094 35.1974C98.8274 35.1974 99.4674 35.3654 100.014 35.7015C100.561 36.0377 100.985 36.5096 101.287 37.1174C101.589 37.7251 101.741 38.4347 101.741 39.2462C101.741 40.0542 101.589 40.7604 101.287 41.3648C100.985 41.9691 100.561 42.4394 100.014 42.7755C99.4674 43.1116 98.8274 43.2797 98.094 43.2797ZM98.0991 42.0014C98.5745 42.0014 98.9683 41.8758 99.2807 41.6245C99.593 41.3733 99.8239 41.0389 99.9733 40.6212C100.126 40.2036 100.202 39.7436 100.202 39.2411C100.202 38.742 100.126 38.2836 99.9733 37.866C99.8239 37.445 99.593 37.1072 99.2807 36.8525C98.9683 36.5979 98.5745 36.4706 98.0991 36.4706C97.6204 36.4706 97.2232 36.5979 96.9074 36.8525C96.595 37.1072 96.3625 37.445 96.2097 37.866C96.0603 38.2836 95.9856 38.742 95.9856 39.2411C95.9856 39.7436 96.0603 40.2036 96.2097 40.6212C96.3625 41.0389 96.595 41.3733 96.9074 41.6245C97.2232 41.8758 97.6204 42.0014 98.0991 42.0014ZM103.44 35.2992H104.963V43.6311C104.963 44.154 104.868 44.5954 104.678 44.9553C104.491 45.3151 104.213 45.5885 103.843 45.7752C103.476 45.9619 103.023 46.0553 102.483 46.0553C102.428 46.0553 102.378 46.0553 102.33 46.0553C102.279 46.0553 102.226 46.0536 102.172 46.0502V44.7414C102.22 44.7414 102.262 44.7414 102.299 44.7414C102.333 44.7414 102.372 44.7414 102.417 44.7414C102.776 44.7414 103.036 44.6446 103.196 44.4511C103.359 44.2609 103.44 43.9842 103.44 43.6209V35.2992ZM104.194 34.0922C103.929 34.0922 103.702 34.0039 103.512 33.8274C103.325 33.6474 103.231 33.4335 103.231 33.1857C103.231 32.9344 103.325 32.7205 103.512 32.544C103.702 32.364 103.929 32.2741 104.194 32.2741C104.459 32.2741 104.685 32.364 104.871 32.544C105.061 32.7205 105.157 32.9344 105.157 33.1857C105.157 33.4335 105.061 33.6474 104.871 33.8274C104.685 34.0039 104.459 34.0922 104.194 34.0922ZM110.383 43.2797C109.612 43.2797 108.949 43.115 108.392 42.7857C107.838 42.453 107.411 41.9861 107.108 41.3852C106.81 40.7808 106.66 40.0729 106.66 39.2614C106.66 38.4602 106.81 37.754 107.108 37.1428C107.411 36.5317 107.832 36.0546 108.371 35.7117C108.915 35.3688 109.55 35.1974 110.276 35.1974C110.718 35.1974 111.145 35.2704 111.56 35.4163C111.974 35.5623 112.346 35.7915 112.675 36.1039C113.004 36.4162 113.264 36.822 113.454 37.3211C113.644 37.8168 113.739 38.4194 113.739 39.129V39.6689H107.521V38.5281H112.247C112.247 38.1274 112.166 37.7726 112.003 37.4637C111.84 37.1513 111.61 36.9052 111.315 36.7252C111.023 36.5453 110.68 36.4553 110.286 36.4553C109.859 36.4553 109.485 36.5605 109.166 36.771C108.85 36.9782 108.606 37.2498 108.433 37.5859C108.263 37.9186 108.178 38.2802 108.178 38.6707V39.5619C108.178 40.0848 108.27 40.5296 108.453 40.8963C108.64 41.2629 108.899 41.543 109.232 41.7366C109.565 41.9267 109.954 42.0218 110.398 42.0218C110.687 42.0218 110.95 41.981 111.188 41.8995C111.425 41.8147 111.631 41.689 111.804 41.5227C111.977 41.3563 112.11 41.1509 112.201 40.9064L113.642 41.1662C113.527 41.5906 113.32 41.9624 113.021 42.2815C112.726 42.5973 112.354 42.8434 111.906 43.02C111.461 43.1931 110.953 43.2797 110.383 43.2797ZM118.724 43.2797C117.967 43.2797 117.315 43.1082 116.768 42.7653C116.225 42.419 115.807 41.942 115.515 41.3342C115.223 40.7265 115.077 40.0305 115.077 39.2462C115.077 38.4517 115.227 37.7506 115.526 37.1428C115.824 36.5317 116.245 36.0546 116.789 35.7117C117.332 35.3688 117.972 35.1974 118.709 35.1974C119.303 35.1974 119.832 35.3077 120.298 35.5284C120.763 35.7457 121.138 36.0513 121.423 36.4451C121.712 36.8389 121.883 37.299 121.937 37.8253H120.455C120.374 37.4586 120.187 37.1428 119.895 36.878C119.607 36.6132 119.22 36.4808 118.734 36.4808C118.31 36.4808 117.938 36.5928 117.619 36.8169C117.303 37.0376 117.057 37.3533 116.88 37.7641C116.704 38.1716 116.615 38.6537 116.615 39.2105C116.615 39.7809 116.702 40.2732 116.875 40.6874C117.048 41.1017 117.293 41.4225 117.609 41.65C117.928 41.8775 118.303 41.9912 118.734 41.9912C119.023 41.9912 119.284 41.9386 119.518 41.8333C119.756 41.7247 119.955 41.5702 120.114 41.3699C120.277 41.1696 120.391 40.9285 120.455 40.6467H121.937C121.883 41.1526 121.718 41.6042 121.443 42.0014C121.168 42.3986 120.8 42.711 120.338 42.9385C119.88 43.166 119.342 43.2797 118.724 43.2797ZM127.217 35.2992V36.5215H122.945V35.2992H127.217ZM124.09 33.425H125.613V40.825C125.613 41.1203 125.657 41.3427 125.746 41.4921C125.834 41.6381 125.948 41.7383 126.087 41.7926C126.229 41.8435 126.384 41.869 126.55 41.869C126.673 41.869 126.78 41.8605 126.871 41.8435C126.963 41.8265 127.034 41.813 127.085 41.8028L127.36 43.0607C127.272 43.0947 127.146 43.1286 126.983 43.1626C126.82 43.1999 126.617 43.2203 126.372 43.2237C125.971 43.2305 125.598 43.1592 125.252 43.0098C124.905 42.8604 124.625 42.6295 124.411 42.3172C124.197 42.0048 124.09 41.6126 124.09 41.1407V33.425Z" fill="#2BD7B0"/>
<path d="M134.22 38.4771V43.1218H132.697V35.2992H134.159V36.5724H134.256C134.436 36.1582 134.718 35.8255 135.101 35.5742C135.488 35.323 135.975 35.1974 136.563 35.1974C137.096 35.1974 137.563 35.3094 137.963 35.5335C138.364 35.7542 138.675 36.0835 138.895 36.5215C139.116 36.9595 139.226 37.501 139.226 38.1461V43.1218H137.704V38.3295C137.704 37.7625 137.556 37.3194 137.261 37.0002C136.965 36.6777 136.559 36.5164 136.043 36.5164C135.69 36.5164 135.376 36.5928 135.101 36.7456C134.83 36.8984 134.614 37.1224 134.454 37.4178C134.298 37.7098 134.22 38.0629 134.22 38.4771ZM141.269 46.0553V35.2992H142.756V36.5673H142.883C142.971 36.4044 143.099 36.2159 143.265 36.002C143.431 35.7881 143.662 35.6014 143.958 35.4418C144.253 35.2788 144.644 35.1974 145.129 35.1974C145.761 35.1974 146.324 35.3569 146.82 35.6761C147.316 35.9952 147.704 36.4553 147.986 37.0562C148.271 37.6572 148.414 38.3804 148.414 39.2258C148.414 40.0712 148.273 40.7961 147.991 41.4004C147.709 42.0014 147.322 42.4648 146.83 42.7908C146.338 43.1133 145.776 43.2746 145.144 43.2746C144.669 43.2746 144.28 43.1948 143.978 43.0352C143.679 42.8757 143.445 42.6889 143.275 42.475C143.105 42.2611 142.975 42.071 142.883 41.9046H142.791V46.0553H141.269ZM142.761 39.2105C142.761 39.7605 142.841 40.2427 143 40.6569C143.16 41.0711 143.391 41.3954 143.693 41.6296C143.995 41.8605 144.365 41.9759 144.803 41.9759C145.258 41.9759 145.638 41.8554 145.944 41.6143C146.249 41.3699 146.48 41.0389 146.637 40.6212C146.796 40.2036 146.876 39.7334 146.876 39.2105C146.876 38.6944 146.798 38.231 146.642 37.8202C146.489 37.4093 146.258 37.0851 145.949 36.8474C145.643 36.6098 145.261 36.4909 144.803 36.4909C144.362 36.4909 143.988 36.6047 143.683 36.8322C143.38 37.0596 143.151 37.3771 142.995 37.7845C142.839 38.1919 142.761 38.6673 142.761 39.2105ZM150.12 43.1218V35.2992H151.582V36.5724H151.678C151.841 36.1412 152.108 35.8051 152.478 35.564C152.848 35.3196 153.291 35.1974 153.807 35.1974C154.33 35.1974 154.768 35.3196 155.121 35.564C155.478 35.8085 155.741 36.1446 155.911 36.5724H155.992C156.179 36.1548 156.476 35.8221 156.883 35.5742C157.291 35.323 157.776 35.1974 158.34 35.1974C159.049 35.1974 159.628 35.4197 160.077 35.8645C160.528 36.3093 160.754 36.9798 160.754 37.8762V43.1218H159.231V38.0188C159.231 37.4891 159.087 37.1055 158.798 36.8678C158.51 36.6301 158.165 36.5113 157.764 36.5113C157.269 36.5113 156.883 36.6641 156.608 36.9697C156.333 37.2718 156.196 37.6606 156.196 38.1359V43.1218H154.678V37.922C154.678 37.4976 154.546 37.1564 154.281 36.8984C154.016 36.6403 153.671 36.5113 153.247 36.5113C152.958 36.5113 152.692 36.5877 152.447 36.7405C152.206 36.8899 152.011 37.0987 151.862 37.3669C151.716 37.6351 151.643 37.9458 151.643 38.2989V43.1218H150.12ZM166.59 43.1218V35.2992H168.113V43.1218H166.59ZM167.359 34.0922C167.094 34.0922 166.867 34.0039 166.677 33.8274C166.49 33.6474 166.397 33.4335 166.397 33.1857C166.397 32.9344 166.49 32.7205 166.677 32.544C166.867 32.364 167.094 32.2741 167.359 32.2741C167.624 32.2741 167.85 32.364 168.037 32.544C168.227 32.7205 168.322 32.9344 168.322 33.1857C168.322 33.4335 168.227 33.6474 168.037 33.8274C167.85 34.0039 167.624 34.0922 167.359 34.0922ZM171.684 38.4771V43.1218H170.162V35.2992H171.623V36.5724H171.72C171.9 36.1582 172.182 35.8255 172.565 35.5742C172.953 35.323 173.44 35.1974 174.027 35.1974C174.56 35.1974 175.027 35.3094 175.428 35.5335C175.828 35.7542 176.139 36.0835 176.36 36.5215C176.58 36.9595 176.691 37.501 176.691 38.1461V43.1218H175.168V38.3295C175.168 37.7625 175.02 37.3194 174.725 37.0002C174.429 36.6777 174.024 36.5164 173.508 36.5164C173.155 36.5164 172.841 36.5928 172.565 36.7456C172.294 36.8984 172.078 37.1224 171.919 37.4178C171.763 37.7098 171.684 38.0629 171.684 38.4771ZM184.595 37.209L183.215 37.4535C183.157 37.2769 183.065 37.1089 182.94 36.9493C182.817 36.7897 182.651 36.659 182.441 36.5571C182.23 36.4553 181.967 36.4044 181.651 36.4044C181.22 36.4044 180.86 36.5011 180.571 36.6947C180.283 36.8848 180.139 37.1309 180.139 37.4331C180.139 37.6945 180.235 37.9051 180.429 38.0646C180.622 38.2242 180.935 38.3549 181.366 38.4568L182.609 38.742C183.328 38.9083 183.865 39.1647 184.218 39.511C184.571 39.8573 184.748 40.3072 184.748 40.8606C184.748 41.3291 184.612 41.7468 184.34 42.1134C184.072 42.4767 183.697 42.7619 183.215 42.969C182.736 43.1761 182.181 43.2797 181.549 43.2797C180.673 43.2797 179.959 43.093 179.405 42.7195C178.852 42.3426 178.512 41.8079 178.387 41.1152L179.858 40.8912C179.95 41.2748 180.139 41.5651 180.424 41.762C180.709 41.9556 181.081 42.0523 181.539 42.0523C182.038 42.0523 182.437 41.9488 182.736 41.7417C183.035 41.5312 183.184 41.2748 183.184 40.9726C183.184 40.7282 183.092 40.5228 182.909 40.3564C182.729 40.19 182.452 40.0644 182.079 39.9795L180.755 39.6892C180.025 39.5229 179.485 39.2581 179.135 38.8948C178.789 38.5315 178.616 38.0714 178.616 37.5146C178.616 37.0528 178.745 36.6488 179.003 36.3025C179.261 35.9562 179.617 35.6863 180.072 35.4927C180.527 35.2958 181.048 35.1974 181.636 35.1974C182.481 35.1974 183.147 35.3807 183.632 35.7474C184.118 36.1107 184.439 36.5979 184.595 37.209ZM190.073 35.2992V36.5215H185.801V35.2992H190.073ZM186.946 33.425H188.469V40.825C188.469 41.1203 188.513 41.3427 188.602 41.4921C188.69 41.6381 188.804 41.7383 188.943 41.7926C189.085 41.8435 189.24 41.869 189.406 41.869C189.528 41.869 189.635 41.8605 189.727 41.8435C189.819 41.8265 189.89 41.813 189.941 41.8028L190.216 43.0607C190.128 43.0947 190.002 43.1286 189.839 43.1626C189.676 43.1999 189.472 43.2203 189.228 43.2237C188.827 43.2305 188.454 43.1592 188.108 43.0098C187.761 42.8604 187.481 42.6295 187.267 42.3172C187.053 42.0048 186.946 41.6126 186.946 41.1407V33.425ZM194.034 43.295C193.539 43.295 193.091 43.2033 192.69 43.02C192.289 42.8332 191.972 42.5633 191.738 42.2102C191.507 41.8571 191.391 41.4242 191.391 40.9115C191.391 40.4701 191.476 40.1069 191.646 39.8217C191.816 39.5365 192.045 39.3107 192.333 39.1443C192.622 38.9779 192.945 38.8523 193.301 38.7674C193.658 38.6826 194.021 38.618 194.391 38.5739C194.859 38.5196 195.24 38.4754 195.532 38.4415C195.824 38.4042 196.036 38.3447 196.168 38.2632C196.301 38.1818 196.367 38.0493 196.367 37.866V37.8304C196.367 37.3856 196.241 37.041 195.99 36.7965C195.742 36.5521 195.372 36.4298 194.88 36.4298C194.367 36.4298 193.963 36.5436 193.668 36.771C193.376 36.9951 193.174 37.2447 193.062 37.5197L191.631 37.1937C191.8 36.7184 192.048 36.3348 192.374 36.0428C192.703 35.7474 193.082 35.5335 193.51 35.4011C193.938 35.2653 194.387 35.1974 194.859 35.1974C195.172 35.1974 195.503 35.2347 195.853 35.3094C196.206 35.3807 196.535 35.5131 196.841 35.7066C197.15 35.9002 197.402 36.1769 197.599 36.5368C197.796 36.8933 197.895 37.3567 197.895 37.9271V43.1218H196.408V42.0523H196.347C196.248 42.2493 196.1 42.4428 195.903 42.6329C195.707 42.823 195.454 42.9809 195.145 43.1065C194.836 43.2322 194.466 43.295 194.034 43.295ZM194.365 42.0727C194.786 42.0727 195.146 41.9895 195.445 41.8231C195.747 41.6568 195.976 41.4395 196.133 41.1713C196.292 40.8996 196.372 40.6094 196.372 40.3004V39.292C196.318 39.3463 196.212 39.3973 196.056 39.4448C195.903 39.4889 195.729 39.528 195.532 39.5619C195.335 39.5925 195.143 39.6213 194.956 39.6485C194.769 39.6723 194.613 39.6926 194.488 39.7096C194.192 39.747 193.922 39.8098 193.678 39.8981C193.437 39.9863 193.243 40.1136 193.097 40.28C192.955 40.443 192.883 40.6603 192.883 40.9319C192.883 41.3088 193.023 41.594 193.301 41.7875C193.579 41.9776 193.934 42.0727 194.365 42.0727ZM201.446 32.6917V43.1218H199.923V32.6917H201.446ZM205.017 32.6917V43.1218H203.494V32.6917H205.017Z" fill="white"/>
</svg>
