<svg width="606" height="606" viewBox="0 0 606 606" fill="none" xmlns="http://www.w3.org/2000/svg">
<rect width="606" height="606" fill="white"/>
<path d="M85.8967 323.3V282.7H118.397V290.8H93.9967V298.9H110.197V307.1H93.9967V315.2H118.397V323.3H85.8967Z" fill="black"/>
<path d="M156.697 323.3L140.397 282.7H149.097L160.797 311.6L172.297 282.7H180.997L164.797 323.3H156.697Z" fill="black"/>
<path d="M202.997 323.3V282.7H235.497V290.8H211.097V298.9H227.297V307.1H211.097V315.2H235.497V323.3H202.997Z" fill="black"/>
<path d="M287.797 305.501L293.597 323.301H285.097L279.797 307.101H265.597V323.301H257.497V282.701H281.797C283.406 282.679 285.004 282.977 286.498 283.578C287.991 284.179 289.351 285.07 290.497 286.201C291.653 287.328 292.562 288.683 293.164 290.181C293.767 291.679 294.05 293.287 293.997 294.901C294.049 297.069 293.497 299.209 292.402 301.081C291.307 302.953 289.713 304.484 287.797 305.501ZM265.597 298.901H281.797C282.336 298.906 282.871 298.803 283.369 298.597C283.868 298.391 284.319 298.086 284.697 297.701C285.089 297.329 285.399 296.878 285.606 296.378C285.813 295.879 285.912 295.341 285.897 294.801C285.897 294.262 285.791 293.729 285.585 293.232C285.379 292.734 285.077 292.282 284.696 291.901C284.315 291.521 283.863 291.219 283.366 291.013C282.868 290.807 282.335 290.701 281.797 290.701H265.597V298.901Z" fill="black"/>
<path d="M316.003 323.3V282.7H324.103V315.2H344.403V323.3H316.003Z" fill="black"/>
<path d="M395.103 315.2H378.403L375.103 323.3H366.403L382.703 282.7H390.803L407.103 323.3H398.403L395.103 315.2ZM391.803 307.1L386.703 294.4L381.603 307.1H391.803Z" fill="black"/>
<path d="M465.603 282.7V323.3H457.503L437.203 296.3V323.3H429.103V282.7H437.203L457.503 309.7V282.7H465.603Z" fill="black"/>
<path d="M487.603 323.3V282.7H520.103V290.8H495.703V298.9H511.903V307.1H495.703V315.2H520.103V323.3H487.603Z" fill="black"/>
</svg>
