<svg width="16" height="24" viewBox="0 0 16 24" fill="none" xmlns="http://www.w3.org/2000/svg">
<g clip-path="url(#clip0_17_217)">
<path d="M7.63635 11.9999C7.63635 9.79078 9.34545 7.99988 11.4538 7.99988C13.562 7.99988 15.2712 9.79078 15.2712 11.9999C15.2712 14.209 13.562 15.9999 11.4538 15.9999C9.34545 15.9999 7.63635 14.209 7.63635 11.9999Z" fill="#1ABCFE"/>
<path d="M0.00146484 20.0001C0.00146484 17.791 1.71056 16.0001 3.81888 16.0001H7.6363V20.0001C7.6363 22.2093 5.9272 24.0001 3.81888 24.0001C1.71056 24.0001 0.00146484 22.2093 0.00146484 20.0001Z" fill="#0ACF83"/>
<path d="M7.63635 0.000244141V8.00019H11.4538C13.5621 8.00019 15.2712 6.20935 15.2712 4.00019C15.2712 1.79103 13.5621 0.000244141 11.4538 0.000244141H7.63635Z" fill="#FF7262"/>
<path d="M0.00146484 4C0.00146484 6.20916 1.71056 8 3.81888 8H7.6363V0H3.81888C1.71056 0 0.00146484 1.7909 0.00146484 4Z" fill="#F24E1E"/>
<path d="M0.00146484 11.9999C0.00146484 14.209 1.71056 15.9999 3.81888 15.9999H7.6363V7.99988H3.81888C1.71056 7.99988 0.00146484 9.79078 0.00146484 11.9999Z" fill="#A259FF"/>
</g>
<defs>
<clipPath id="clip0_17_217">
<rect width="15.2727" height="24" fill="white"/>
</clipPath>
</defs>
</svg>
