<svg width="606" height="371" viewBox="0 0 606 371" fill="none" xmlns="http://www.w3.org/2000/svg">
<path d="M65.0795 39.7727C65.0795 41.6364 64.7386 43.2386 64.0568 44.5795C63.375 45.9148 62.4403 46.9432 61.2528 47.6648C60.071 48.3807 58.7273 48.7386 57.2216 48.7386C55.7102 48.7386 54.3608 48.3807 53.1733 47.6648C51.9915 46.9432 51.0597 45.9119 50.3778 44.571C49.696 43.2301 49.3551 41.6307 49.3551 39.7727C49.3551 37.9091 49.696 36.3097 50.3778 34.9744C51.0597 33.6335 51.9915 32.6051 53.1733 31.8892C54.3608 31.1676 55.7102 30.8068 57.2216 30.8068C58.7273 30.8068 60.071 31.1676 61.2528 31.8892C62.4403 32.6051 63.375 33.6335 64.0568 34.9744C64.7386 36.3097 65.0795 37.9091 65.0795 39.7727ZM62.4716 39.7727C62.4716 38.3523 62.2415 37.1562 61.7812 36.1847C61.3267 35.2074 60.7017 34.4688 59.9062 33.9688C59.1165 33.4631 58.2216 33.2102 57.2216 33.2102C56.2159 33.2102 55.3182 33.4631 54.5284 33.9688C53.7386 34.4688 53.1136 35.2074 52.6534 36.1847C52.1989 37.1562 51.9716 38.3523 51.9716 39.7727C51.9716 41.1932 52.1989 42.392 52.6534 43.3693C53.1136 44.3409 53.7386 45.0795 54.5284 45.5852C55.3182 46.0852 56.2159 46.3352 57.2216 46.3352C58.2216 46.3352 59.1165 46.0852 59.9062 45.5852C60.7017 45.0795 61.3267 44.3409 61.7812 43.3693C62.2415 42.392 62.4716 41.1932 62.4716 39.7727ZM79.3572 35.4091L74.6101 48.5H71.8828L67.1271 35.4091H69.8629L73.1783 45.483H73.3146L76.6214 35.4091H79.3572ZM86.9489 48.7642C85.6591 48.7642 84.5483 48.4886 83.6165 47.9375C82.6903 47.3807 81.9744 46.5994 81.4688 45.5938C80.9688 44.5824 80.7188 43.3977 80.7188 42.0398C80.7188 40.6989 80.9688 39.517 81.4688 38.4943C81.9744 37.4716 82.679 36.6733 83.5824 36.0994C84.4915 35.5256 85.554 35.2386 86.7699 35.2386C87.5085 35.2386 88.2244 35.3608 88.9176 35.6051C89.6108 35.8494 90.233 36.233 90.7841 36.7557C91.3352 37.2784 91.7699 37.9574 92.0881 38.7926C92.4063 39.6222 92.5653 40.6307 92.5653 41.8182V42.7216H82.1591V40.8125H90.0682C90.0682 40.142 89.9318 39.5483 89.6591 39.0312C89.3864 38.5085 89.0028 38.0966 88.5085 37.7955C88.0199 37.4943 87.446 37.3438 86.7869 37.3438C86.071 37.3438 85.446 37.5199 84.9119 37.8722C84.3835 38.2187 83.9744 38.6733 83.6847 39.2358C83.4006 39.7926 83.2585 40.3977 83.2585 41.0511V42.5426C83.2585 43.4176 83.4119 44.1619 83.7188 44.7756C84.0312 45.3892 84.4659 45.858 85.0227 46.1818C85.5795 46.5 86.2301 46.6591 86.9744 46.6591C87.4574 46.6591 87.8977 46.5909 88.2955 46.4545C88.6932 46.3125 89.0369 46.1023 89.3267 45.8239C89.6165 45.5455 89.8381 45.2017 89.9915 44.7926L92.4034 45.2273C92.2102 45.9375 91.8636 46.5597 91.3636 47.0938C90.8693 47.6222 90.2472 48.0341 89.4972 48.3295C88.7528 48.6193 87.9034 48.7642 86.9489 48.7642ZM95.3928 48.5V35.4091H97.8558V37.4886H97.9922C98.2308 36.7841 98.6513 36.2301 99.2536 35.8267C99.8615 35.4176 100.549 35.2131 101.316 35.2131C101.475 35.2131 101.663 35.2187 101.879 35.2301C102.1 35.2415 102.273 35.2557 102.398 35.2727V37.7102C102.296 37.6818 102.114 37.6506 101.853 37.6165C101.592 37.5767 101.33 37.5568 101.069 37.5568C100.467 37.5568 99.9297 37.6847 99.4581 37.9403C98.9922 38.1903 98.6229 38.5398 98.3501 38.9886C98.0774 39.4318 97.9411 39.9375 97.9411 40.5057V48.5H95.3928ZM116.201 35.4091L111.454 48.5H108.727L103.971 35.4091H106.707L110.022 45.483H110.158L113.465 35.4091H116.201ZM118.596 48.5V35.4091H121.144V48.5H118.596ZM119.883 33.3892C119.44 33.3892 119.059 33.2415 118.741 32.946C118.428 32.6449 118.272 32.2869 118.272 31.8722C118.272 31.4517 118.428 31.0937 118.741 30.7983C119.059 30.4972 119.44 30.3466 119.883 30.3466C120.326 30.3466 120.704 30.4972 121.016 30.7983C121.335 31.0937 121.494 31.4517 121.494 31.8722C121.494 32.2869 121.335 32.6449 121.016 32.946C120.704 33.2415 120.326 33.3892 119.883 33.3892ZM130.214 48.7642C128.925 48.7642 127.814 48.4886 126.882 47.9375C125.956 47.3807 125.24 46.5994 124.734 45.5938C124.234 44.5824 123.984 43.3977 123.984 42.0398C123.984 40.6989 124.234 39.517 124.734 38.4943C125.24 37.4716 125.945 36.6733 126.848 36.0994C127.757 35.5256 128.82 35.2386 130.036 35.2386C130.774 35.2386 131.49 35.3608 132.183 35.6051C132.876 35.8494 133.499 36.233 134.05 36.7557C134.601 37.2784 135.036 37.9574 135.354 38.7926C135.672 39.6222 135.831 40.6307 135.831 41.8182V42.7216H125.425V40.8125H133.334C133.334 40.142 133.197 39.5483 132.925 39.0312C132.652 38.5085 132.268 38.0966 131.774 37.7955C131.286 37.4943 130.712 37.3438 130.053 37.3438C129.337 37.3438 128.712 37.5199 128.178 37.8722C127.649 38.2187 127.24 38.6733 126.95 39.2358C126.666 39.7926 126.524 40.3977 126.524 41.0511V42.5426C126.524 43.4176 126.678 44.1619 126.984 44.7756C127.297 45.3892 127.732 45.858 128.288 46.1818C128.845 46.5 129.496 46.6591 130.24 46.6591C130.723 46.6591 131.163 46.5909 131.561 46.4545C131.959 46.3125 132.303 46.1023 132.592 45.8239C132.882 45.5455 133.104 45.2017 133.257 44.7926L135.669 45.2273C135.476 45.9375 135.129 46.5597 134.629 47.0938C134.135 47.6222 133.513 48.0341 132.763 48.3295C132.018 48.6193 131.169 48.7642 130.214 48.7642ZM141.473 48.5L137.621 35.4091H140.254L142.82 45.0227H142.947L145.521 35.4091H148.155L150.712 44.9801H150.839L153.388 35.4091H156.021L152.178 48.5H149.578L146.919 39.0483H146.723L144.064 48.5H141.473Z" fill="white"/>
<path d="M453.943 37.6477H452.17C452.102 37.2689 451.975 36.9356 451.79 36.6477C451.604 36.3598 451.377 36.1155 451.108 35.9148C450.839 35.714 450.538 35.5625 450.205 35.4602C449.875 35.358 449.525 35.3068 449.153 35.3068C448.483 35.3068 447.883 35.4754 447.352 35.8125C446.826 36.1496 446.409 36.6439 446.102 37.2955C445.799 37.947 445.648 38.7424 445.648 39.6818C445.648 40.6288 445.799 41.428 446.102 42.0795C446.409 42.7311 446.828 43.2235 447.358 43.5568C447.888 43.8902 448.485 44.0568 449.148 44.0568C449.515 44.0568 449.864 44.0076 450.193 43.9091C450.527 43.8068 450.828 43.6572 451.097 43.4602C451.366 43.2633 451.593 43.0227 451.778 42.7386C451.968 42.4508 452.098 42.1212 452.17 41.75L453.943 41.7557C453.848 42.3277 453.665 42.8542 453.392 43.3352C453.123 43.8125 452.777 44.2254 452.352 44.5739C451.932 44.9186 451.451 45.1856 450.909 45.375C450.367 45.5644 449.777 45.6591 449.136 45.6591C448.129 45.6591 447.231 45.4205 446.443 44.9432C445.655 44.4621 445.034 43.7746 444.58 42.8807C444.129 41.9867 443.903 40.9205 443.903 39.6818C443.903 38.4394 444.131 37.3731 444.585 36.483C445.04 35.589 445.661 34.9034 446.449 34.4261C447.237 33.9451 448.133 33.7045 449.136 33.7045C449.754 33.7045 450.33 33.7936 450.864 33.9716C451.402 34.1458 451.884 34.4034 452.312 34.7443C452.741 35.0814 453.095 35.4943 453.375 35.983C453.655 36.4678 453.845 37.0227 453.943 37.6477ZM457.607 33.8636V45.5H455.908V33.8636H457.607ZM463.653 45.6761C462.794 45.6761 462.053 45.4924 461.432 45.125C460.814 44.7538 460.337 44.233 460 43.5625C459.667 42.8883 459.5 42.0985 459.5 41.1932C459.5 40.2992 459.667 39.5114 460 38.8295C460.337 38.1477 460.807 37.6155 461.409 37.233C462.015 36.8504 462.723 36.6591 463.534 36.6591C464.027 36.6591 464.504 36.7405 464.966 36.9034C465.428 37.0663 465.843 37.322 466.21 37.6705C466.578 38.0189 466.867 38.4716 467.08 39.0284C467.292 39.5814 467.398 40.2538 467.398 41.0455V41.6477H460.46V40.375H465.733C465.733 39.928 465.642 39.5322 465.46 39.1875C465.278 38.839 465.023 38.5644 464.693 38.3636C464.367 38.1629 463.985 38.0625 463.545 38.0625C463.068 38.0625 462.652 38.1799 462.295 38.4148C461.943 38.6458 461.67 38.9489 461.477 39.3239C461.288 39.6951 461.193 40.0985 461.193 40.5341V41.5284C461.193 42.1117 461.295 42.608 461.5 43.017C461.708 43.4261 461.998 43.7386 462.369 43.9545C462.741 44.1667 463.174 44.2727 463.67 44.2727C463.992 44.2727 464.286 44.2273 464.551 44.1364C464.816 44.0417 465.045 43.9015 465.239 43.7159C465.432 43.5303 465.58 43.3011 465.682 43.0284L467.29 43.3182C467.161 43.7917 466.93 44.2064 466.597 44.5625C466.267 44.9148 465.852 45.1894 465.352 45.3864C464.856 45.5795 464.29 45.6761 463.653 45.6761ZM471.822 45.6932C471.269 45.6932 470.769 45.5909 470.322 45.3864C469.875 45.178 469.521 44.8769 469.26 44.483C469.002 44.089 468.874 43.6061 468.874 43.0341C468.874 42.5417 468.968 42.1364 469.158 41.8182C469.347 41.5 469.603 41.2481 469.925 41.0625C470.247 40.8769 470.607 40.7367 471.004 40.642C471.402 40.5473 471.807 40.4754 472.22 40.4261C472.743 40.3655 473.167 40.3163 473.493 40.2784C473.819 40.2367 474.055 40.1705 474.203 40.0795C474.351 39.9886 474.425 39.8409 474.425 39.6364V39.5966C474.425 39.1004 474.285 38.7159 474.004 38.4432C473.728 38.1705 473.315 38.0341 472.766 38.0341C472.194 38.0341 471.743 38.161 471.413 38.4148C471.088 38.6648 470.862 38.9432 470.737 39.25L469.141 38.8864C469.33 38.3561 469.607 37.928 469.97 37.6023C470.338 37.2727 470.76 37.0341 471.237 36.8864C471.714 36.7348 472.216 36.6591 472.743 36.6591C473.091 36.6591 473.461 36.7008 473.851 36.7841C474.245 36.8636 474.612 37.0114 474.953 37.2273C475.298 37.4432 475.58 37.7519 475.8 38.1534C476.019 38.5511 476.129 39.0682 476.129 39.7045V45.5H474.47V44.3068H474.402C474.292 44.5265 474.127 44.7424 473.908 44.9545C473.688 45.1667 473.406 45.3428 473.061 45.483C472.716 45.6231 472.304 45.6932 471.822 45.6932ZM472.192 44.3295C472.661 44.3295 473.063 44.2367 473.396 44.0511C473.733 43.8655 473.989 43.6231 474.163 43.3239C474.341 43.0208 474.43 42.697 474.43 42.3523V41.2273C474.37 41.2879 474.252 41.3447 474.078 41.3977C473.908 41.447 473.713 41.4905 473.493 41.5284C473.273 41.5625 473.059 41.5947 472.851 41.625C472.643 41.6515 472.468 41.6742 472.328 41.6932C471.999 41.7348 471.697 41.8049 471.425 41.9034C471.156 42.0019 470.94 42.1439 470.777 42.3295C470.618 42.5114 470.538 42.7538 470.538 43.0568C470.538 43.4773 470.694 43.7955 471.004 44.0114C471.315 44.2235 471.711 44.3295 472.192 44.3295ZM478.392 45.5V36.7727H480.034V38.1591H480.125C480.284 37.6894 480.564 37.3201 480.966 37.0511C481.371 36.7784 481.83 36.642 482.341 36.642C482.447 36.642 482.572 36.6458 482.716 36.6534C482.864 36.661 482.979 36.6705 483.062 36.6818V38.3068C482.994 38.2879 482.873 38.267 482.699 38.2443C482.525 38.2178 482.35 38.2045 482.176 38.2045C481.775 38.2045 481.417 38.2898 481.102 38.4602C480.792 38.6269 480.545 38.8598 480.364 39.1591C480.182 39.4545 480.091 39.7917 480.091 40.1705V45.5H478.392ZM492.92 36.7727V38.1364H487.989V36.7727H492.92ZM489.341 45.5V35.7614C489.341 35.2159 489.46 34.7633 489.699 34.4034C489.938 34.0398 490.254 33.7689 490.648 33.5909C491.042 33.4091 491.47 33.3182 491.932 33.3182C492.273 33.3182 492.564 33.3466 492.807 33.4034C493.049 33.4564 493.229 33.5057 493.347 33.5511L492.949 34.9261C492.869 34.9034 492.767 34.8769 492.642 34.8466C492.517 34.8125 492.366 34.7955 492.188 34.7955C491.775 34.7955 491.479 34.8977 491.301 35.1023C491.127 35.3068 491.04 35.6023 491.04 35.9886V45.5H489.341ZM494.673 45.5V36.7727H496.372V45.5H494.673ZM495.531 35.4261C495.236 35.4261 494.982 35.3277 494.77 35.1307C494.562 34.9299 494.457 34.6913 494.457 34.4148C494.457 34.1345 494.562 33.8958 494.77 33.6989C494.982 33.4981 495.236 33.3977 495.531 33.3977C495.827 33.3977 496.079 33.4981 496.287 33.6989C496.499 33.8958 496.605 34.1345 496.605 34.4148C496.605 34.6913 496.499 34.9299 496.287 35.1307C496.079 35.3277 495.827 35.4261 495.531 35.4261ZM500.357 33.8636V45.5H498.658V33.8636H500.357ZM506.716 36.7727V38.1364H501.949V36.7727H506.716ZM503.227 34.6818H504.926V42.9375C504.926 43.267 504.975 43.5152 505.074 43.6818C505.172 43.8447 505.299 43.9564 505.455 44.017C505.614 44.0739 505.786 44.1023 505.972 44.1023C506.108 44.1023 506.227 44.0928 506.33 44.0739C506.432 44.0549 506.511 44.0398 506.568 44.0284L506.875 45.4318C506.777 45.4697 506.636 45.5076 506.455 45.5455C506.273 45.5871 506.045 45.6098 505.773 45.6136C505.326 45.6212 504.909 45.5417 504.523 45.375C504.136 45.2083 503.824 44.9508 503.585 44.6023C503.347 44.2538 503.227 43.8163 503.227 43.2898V34.6818ZM512.263 45.6761C511.403 45.6761 510.662 45.4924 510.041 45.125C509.424 44.7538 508.946 44.233 508.609 43.5625C508.276 42.8883 508.109 42.0985 508.109 41.1932C508.109 40.2992 508.276 39.5114 508.609 38.8295C508.946 38.1477 509.416 37.6155 510.018 37.233C510.625 36.8504 511.333 36.6591 512.143 36.6591C512.636 36.6591 513.113 36.7405 513.575 36.9034C514.037 37.0663 514.452 37.322 514.82 37.6705C515.187 38.0189 515.477 38.4716 515.689 39.0284C515.901 39.5814 516.007 40.2538 516.007 41.0455V41.6477H509.07V40.375H514.342C514.342 39.928 514.251 39.5322 514.07 39.1875C513.888 38.839 513.632 38.5644 513.303 38.3636C512.977 38.1629 512.594 38.0625 512.155 38.0625C511.678 38.0625 511.261 38.1799 510.905 38.4148C510.553 38.6458 510.28 38.9489 510.087 39.3239C509.897 39.6951 509.803 40.0985 509.803 40.5341V41.5284C509.803 42.1117 509.905 42.608 510.109 43.017C510.318 43.4261 510.607 43.7386 510.979 43.9545C511.35 44.1667 511.784 44.2727 512.28 44.2727C512.602 44.2727 512.895 44.2273 513.161 44.1364C513.426 44.0417 513.655 43.9015 513.848 43.7159C514.041 43.5303 514.189 43.3011 514.291 43.0284L515.899 43.3182C515.77 43.7917 515.539 44.2064 515.206 44.5625C514.876 44.9148 514.462 45.1894 513.962 45.3864C513.465 45.5795 512.899 45.6761 512.263 45.6761ZM517.892 45.5V36.7727H519.534V38.1591H519.625C519.784 37.6894 520.064 37.3201 520.466 37.0511C520.871 36.7784 521.33 36.642 521.841 36.642C521.947 36.642 522.072 36.6458 522.216 36.6534C522.364 36.661 522.479 36.6705 522.562 36.6818V38.3068C522.494 38.2879 522.373 38.267 522.199 38.2443C522.025 38.2178 521.85 38.2045 521.676 38.2045C521.275 38.2045 520.917 38.2898 520.602 38.4602C520.292 38.6269 520.045 38.8598 519.864 39.1591C519.682 39.4545 519.591 39.7917 519.591 40.1705V45.5H517.892ZM530.572 38.9034L529.033 39.1761C528.968 38.9792 528.866 38.7917 528.726 38.6136C528.589 38.4356 528.404 38.2898 528.169 38.1761C527.934 38.0625 527.641 38.0057 527.288 38.0057C526.807 38.0057 526.406 38.1136 526.084 38.3295C525.762 38.5417 525.601 38.8163 525.601 39.1534C525.601 39.4451 525.709 39.6799 525.925 39.858C526.141 40.036 526.489 40.1818 526.97 40.2955L528.357 40.6136C529.16 40.7992 529.758 41.0852 530.152 41.4716C530.546 41.858 530.743 42.3598 530.743 42.9773C530.743 43.5 530.591 43.9659 530.288 44.375C529.989 44.7803 529.571 45.0985 529.033 45.3295C528.499 45.5606 527.879 45.6761 527.175 45.6761C526.197 45.6761 525.4 45.4678 524.783 45.0511C524.165 44.6307 523.786 44.0341 523.646 43.2614L525.288 43.0114C525.391 43.4394 525.601 43.7633 525.919 43.983C526.237 44.1989 526.652 44.3068 527.163 44.3068C527.72 44.3068 528.165 44.1913 528.499 43.9602C528.832 43.7254 528.999 43.4394 528.999 43.1023C528.999 42.8295 528.896 42.6004 528.692 42.4148C528.491 42.2292 528.182 42.089 527.766 41.9943L526.288 41.6705C525.474 41.4848 524.872 41.1894 524.482 40.7841C524.095 40.3788 523.902 39.8655 523.902 39.2443C523.902 38.7292 524.046 38.2784 524.334 37.892C524.622 37.5057 525.019 37.2045 525.527 36.9886C526.035 36.7689 526.616 36.6591 527.271 36.6591C528.214 36.6591 528.957 36.8636 529.499 37.2727C530.04 37.678 530.398 38.2216 530.572 38.9034Z" fill="white"/>
<path fill-rule="evenodd" clip-rule="evenodd" d="M551.817 34.6831C552.061 34.9271 552.061 35.3229 551.817 35.5669L543.067 44.3169C542.823 44.561 542.427 44.561 542.183 44.3169C541.939 44.0729 541.939 43.6771 542.183 43.4331L550.933 34.6831C551.177 34.439 551.573 34.439 551.817 34.6831Z" fill="#808080"/>
<path fill-rule="evenodd" clip-rule="evenodd" d="M542.183 34.6831C542.427 34.439 542.823 34.439 543.067 34.6831L551.817 43.4331C552.061 43.6771 552.061 44.0729 551.817 44.3169C551.573 44.561 551.177 44.561 550.933 44.3169L542.183 35.5669C541.939 35.3229 541.939 34.9271 542.183 34.6831Z" fill="#808080"/>
<path d="M49.5114 88.5L54.5909 78.4545V78.3693H48.7159V76.8636H56.4091V78.4205L51.3466 88.5H49.5114ZM62.3111 88.5H58.544V76.8636H62.4304C63.5705 76.8636 64.5497 77.0966 65.3679 77.5625C66.1861 78.0246 66.813 78.6894 67.2486 79.5568C67.688 80.4205 67.9077 81.4564 67.9077 82.6648C67.9077 83.8769 67.6861 84.9186 67.2429 85.7898C66.8035 86.661 66.1671 87.3314 65.3338 87.8011C64.5005 88.267 63.4929 88.5 62.3111 88.5ZM60.2997 86.9659H62.2145C63.1009 86.9659 63.8376 86.7992 64.4247 86.4659C65.0118 86.1288 65.4512 85.642 65.7429 85.0057C66.0346 84.3655 66.1804 83.5852 66.1804 82.6648C66.1804 81.7519 66.0346 80.9773 65.7429 80.3409C65.455 79.7045 65.0251 79.2216 64.4531 78.892C63.8812 78.5625 63.1709 78.3977 62.3224 78.3977H60.2997V86.9659Z" fill="white" fill-opacity="0.75"/>
<rect x="81" y="70.5" width="50" height="24" rx="8" fill="white"/>
<path d="M96.5341 76.8636V88.5H94.7727V78.625H94.7045L91.9205 80.4432V78.7614L94.8239 76.8636H96.5341ZM99.4375 86.2273V84.8068L104.466 76.8636H105.585V78.9545H104.875L101.278 84.6477V84.7386H108.17V86.2273H99.4375ZM104.955 88.5V85.7955L104.966 85.1477V76.8636H106.631V88.5H104.955ZM114.077 88.5H110.31V76.8636H114.196C115.336 76.8636 116.315 77.0966 117.134 77.5625C117.952 78.0246 118.579 78.6894 119.014 79.5568C119.454 80.4205 119.673 81.4564 119.673 82.6648C119.673 83.8769 119.452 84.9186 119.009 85.7898C118.569 86.661 117.933 87.3314 117.099 87.8011C116.266 88.267 115.259 88.5 114.077 88.5ZM112.065 86.9659H113.98C114.866 86.9659 115.603 86.7992 116.19 86.4659C116.777 86.1288 117.217 85.642 117.509 85.0057C117.8 84.3655 117.946 83.5852 117.946 82.6648C117.946 81.7519 117.8 80.9773 117.509 80.3409C117.221 79.7045 116.791 79.2216 116.219 78.892C115.647 78.5625 114.937 78.3977 114.088 78.3977H112.065V86.9659Z" fill="#151515"/>
<path d="M148.534 76.8636V88.5H146.773V78.625H146.705L143.92 80.4432V78.7614L146.824 76.8636H148.534ZM151.841 76.8636H153.972L157.676 85.9091H157.812L161.517 76.8636H163.648V88.5H161.977V80.0795H161.869L158.438 88.483H157.051L153.619 80.0739H153.511V88.5H151.841V76.8636Z" fill="white" fill-opacity="0.75"/>
<path d="M182.17 88.6591C181.39 88.6591 180.693 88.5246 180.08 88.2557C179.47 87.9867 178.987 87.6136 178.631 87.1364C178.278 86.6553 178.089 86.0985 178.062 85.4659H179.847C179.869 85.8106 179.985 86.1098 180.193 86.3636C180.405 86.6136 180.682 86.8068 181.023 86.9432C181.364 87.0795 181.742 87.1477 182.159 87.1477C182.617 87.1477 183.023 87.0682 183.375 86.9091C183.731 86.75 184.009 86.5284 184.21 86.2443C184.411 85.9564 184.511 85.625 184.511 85.25C184.511 84.8598 184.411 84.517 184.21 84.2216C184.013 83.9223 183.723 83.6875 183.341 83.517C182.962 83.3466 182.504 83.2614 181.966 83.2614H180.983V81.8295H181.966C182.398 81.8295 182.777 81.7519 183.102 81.5966C183.432 81.4413 183.689 81.2254 183.875 80.9489C184.061 80.6686 184.153 80.3409 184.153 79.9659C184.153 79.6061 184.072 79.2936 183.909 79.0284C183.75 78.7595 183.523 78.5492 183.227 78.3977C182.936 78.2462 182.591 78.1705 182.193 78.1705C181.814 78.1705 181.46 78.2405 181.131 78.3807C180.805 78.517 180.54 78.714 180.335 78.9716C180.131 79.2254 180.021 79.5303 180.006 79.8864H178.307C178.326 79.2576 178.511 78.7045 178.864 78.2273C179.22 77.75 179.689 77.3769 180.273 77.108C180.856 76.839 181.504 76.7045 182.216 76.7045C182.962 76.7045 183.606 76.8504 184.148 77.142C184.693 77.4299 185.114 77.8144 185.409 78.2955C185.708 78.7765 185.856 79.303 185.852 79.875C185.856 80.5265 185.674 81.0795 185.307 81.5341C184.943 81.9886 184.458 82.2936 183.852 82.4489V82.5398C184.625 82.6572 185.223 82.964 185.648 83.4602C186.076 83.9564 186.288 84.572 186.284 85.3068C186.288 85.947 186.11 86.5208 185.75 87.0284C185.394 87.536 184.907 87.9356 184.29 88.2273C183.672 88.5152 182.966 88.6591 182.17 88.6591ZM188.591 76.8636H190.722L194.426 85.9091H194.562L198.267 76.8636H200.398V88.5H198.727V80.0795H198.619L195.188 88.483H193.801L190.369 80.0739H190.261V88.5H188.591V76.8636Z" fill="white" fill-opacity="0.75"/>
<path d="M219.534 76.8636V88.5H217.773V78.625H217.705L214.92 80.4432V78.7614L217.824 76.8636H219.534ZM221.943 76.8636H223.938L226.977 82.1534H227.102L230.142 76.8636H232.136L227.915 83.9318V88.5H226.165V83.9318L221.943 76.8636Z" fill="white" fill-opacity="0.75"/>
<rect x="48" y="134.5" width="307" height="36" rx="12" fill="url(#paint0_linear_599_1158)"/>
<rect x="48" y="194.5" width="199" height="36" rx="12" fill="url(#paint1_linear_599_1158)"/>
<rect x="48" y="254.5" width="398" height="36" rx="12" fill="url(#paint2_linear_599_1158)"/>
<path d="M53.8423 342.693C52.9446 342.689 52.1776 342.453 51.5412 341.983C50.9048 341.513 50.4181 340.83 50.081 339.932C49.7438 339.034 49.5753 337.953 49.5753 336.688C49.5753 335.426 49.7438 334.348 50.081 333.455C50.4219 332.561 50.9105 331.879 51.5469 331.409C52.187 330.939 52.9522 330.705 53.8423 330.705C54.7325 330.705 55.4957 330.941 56.1321 331.415C56.7685 331.884 57.2552 332.566 57.5923 333.46C57.9332 334.35 58.1037 335.426 58.1037 336.688C58.1037 337.956 57.9351 339.04 57.598 339.938C57.2609 340.831 56.7741 341.515 56.1378 341.989C55.5014 342.458 54.7363 342.693 53.8423 342.693ZM53.8423 341.176C54.6302 341.176 55.2457 340.792 55.6889 340.023C56.1359 339.254 56.3594 338.142 56.3594 336.688C56.3594 335.722 56.2571 334.905 56.0526 334.239C55.8518 333.568 55.562 333.061 55.1832 332.716C54.8082 332.367 54.3613 332.193 53.8423 332.193C53.0582 332.193 52.4427 332.58 51.9957 333.352C51.5488 334.125 51.3234 335.237 51.3196 336.688C51.3196 337.657 51.42 338.477 51.6207 339.148C51.8253 339.814 52.1151 340.32 52.4901 340.665C52.8651 341.006 53.3158 341.176 53.8423 341.176Z" fill="white" fill-opacity="0.85"/>
<path d="M134.315 330.864V342.5H132.554V332.625H132.486L129.702 334.443V332.761L132.605 330.864H134.315ZM141.514 342.693C140.616 342.689 139.849 342.453 139.213 341.983C138.577 341.513 138.09 340.83 137.753 339.932C137.416 339.034 137.247 337.953 137.247 336.688C137.247 335.426 137.416 334.348 137.753 333.455C138.094 332.561 138.582 331.879 139.219 331.409C139.859 330.939 140.624 330.705 141.514 330.705C142.404 330.705 143.168 330.941 143.804 331.415C144.44 331.884 144.927 332.566 145.264 333.46C145.605 334.35 145.776 335.426 145.776 336.688C145.776 337.956 145.607 339.04 145.27 339.938C144.933 340.831 144.446 341.515 143.81 341.989C143.173 342.458 142.408 342.693 141.514 342.693ZM141.514 341.176C142.302 341.176 142.918 340.792 143.361 340.023C143.808 339.254 144.031 338.142 144.031 336.688C144.031 335.722 143.929 334.905 143.724 334.239C143.524 333.568 143.234 333.061 142.855 332.716C142.48 332.367 142.033 332.193 141.514 332.193C140.73 332.193 140.115 332.58 139.668 333.352C139.221 334.125 138.995 335.237 138.991 336.688C138.991 337.657 139.092 338.477 139.293 339.148C139.497 339.814 139.787 340.32 140.162 340.665C140.537 341.006 140.988 341.176 141.514 341.176ZM151.842 342.693C150.945 342.689 150.178 342.453 149.541 341.983C148.905 341.513 148.418 340.83 148.081 339.932C147.744 339.034 147.575 337.953 147.575 336.688C147.575 335.426 147.744 334.348 148.081 333.455C148.422 332.561 148.911 331.879 149.547 331.409C150.187 330.939 150.952 330.705 151.842 330.705C152.732 330.705 153.496 330.941 154.132 331.415C154.768 331.884 155.255 332.566 155.592 333.46C155.933 334.35 156.104 335.426 156.104 336.688C156.104 337.956 155.935 339.04 155.598 339.938C155.261 340.831 154.774 341.515 154.138 341.989C153.501 342.458 152.736 342.693 151.842 342.693ZM151.842 341.176C152.63 341.176 153.246 340.792 153.689 340.023C154.136 339.254 154.359 338.142 154.359 336.688C154.359 335.722 154.257 334.905 154.053 334.239C153.852 333.568 153.562 333.061 153.183 332.716C152.808 332.367 152.361 332.193 151.842 332.193C151.058 332.193 150.443 332.58 149.996 333.352C149.549 334.125 149.323 335.237 149.32 336.688C149.32 337.657 149.42 338.477 149.621 339.148C149.825 339.814 150.115 340.32 150.49 340.665C150.865 341.006 151.316 341.176 151.842 341.176Z" fill="white" fill-opacity="0.85"/>
<path d="M227.651 342.5V341.227L231.588 337.148C232.009 336.705 232.355 336.316 232.628 335.983C232.904 335.646 233.111 335.326 233.247 335.023C233.384 334.72 233.452 334.398 233.452 334.057C233.452 333.67 233.361 333.337 233.179 333.057C232.997 332.773 232.749 332.555 232.435 332.403C232.12 332.248 231.766 332.17 231.372 332.17C230.955 332.17 230.592 332.256 230.281 332.426C229.971 332.597 229.732 332.837 229.565 333.148C229.399 333.458 229.315 333.822 229.315 334.239H227.639C227.639 333.53 227.802 332.911 228.128 332.381C228.454 331.85 228.901 331.439 229.469 331.148C230.037 330.852 230.683 330.705 231.406 330.705C232.137 330.705 232.781 330.85 233.338 331.142C233.899 331.43 234.336 331.824 234.651 332.324C234.965 332.82 235.122 333.381 235.122 334.006C235.122 334.438 235.041 334.86 234.878 335.273C234.719 335.686 234.44 336.146 234.043 336.653C233.645 337.157 233.092 337.769 232.384 338.489L230.071 340.909V340.994H235.31V342.5H227.651ZM241.514 342.693C240.616 342.689 239.849 342.453 239.213 341.983C238.577 341.513 238.09 340.83 237.753 339.932C237.416 339.034 237.247 337.953 237.247 336.688C237.247 335.426 237.416 334.348 237.753 333.455C238.094 332.561 238.582 331.879 239.219 331.409C239.859 330.939 240.624 330.705 241.514 330.705C242.404 330.705 243.168 330.941 243.804 331.415C244.44 331.884 244.927 332.566 245.264 333.46C245.605 334.35 245.776 335.426 245.776 336.688C245.776 337.956 245.607 339.04 245.27 339.938C244.933 340.831 244.446 341.515 243.81 341.989C243.173 342.458 242.408 342.693 241.514 342.693ZM241.514 341.176C242.302 341.176 242.918 340.792 243.361 340.023C243.808 339.254 244.031 338.142 244.031 336.688C244.031 335.722 243.929 334.905 243.724 334.239C243.524 333.568 243.234 333.061 242.855 332.716C242.48 332.367 242.033 332.193 241.514 332.193C240.73 332.193 240.115 332.58 239.668 333.352C239.221 334.125 238.995 335.237 238.991 336.688C238.991 337.657 239.092 338.477 239.293 339.148C239.497 339.814 239.787 340.32 240.162 340.665C240.537 341.006 240.988 341.176 241.514 341.176ZM251.842 342.693C250.945 342.689 250.178 342.453 249.541 341.983C248.905 341.513 248.418 340.83 248.081 339.932C247.744 339.034 247.575 337.953 247.575 336.688C247.575 335.426 247.744 334.348 248.081 333.455C248.422 332.561 248.911 331.879 249.547 331.409C250.187 330.939 250.952 330.705 251.842 330.705C252.732 330.705 253.496 330.941 254.132 331.415C254.768 331.884 255.255 332.566 255.592 333.46C255.933 334.35 256.104 335.426 256.104 336.688C256.104 337.956 255.935 339.04 255.598 339.938C255.261 340.831 254.774 341.515 254.138 341.989C253.501 342.458 252.736 342.693 251.842 342.693ZM251.842 341.176C252.63 341.176 253.246 340.792 253.689 340.023C254.136 339.254 254.359 338.142 254.359 336.688C254.359 335.722 254.257 334.905 254.053 334.239C253.852 333.568 253.562 333.061 253.183 332.716C252.808 332.367 252.361 332.193 251.842 332.193C251.058 332.193 250.443 332.58 249.996 333.352C249.549 334.125 249.323 335.237 249.32 336.688C249.32 337.657 249.42 338.477 249.621 339.148C249.825 339.814 250.115 340.32 250.49 340.665C250.865 341.006 251.316 341.176 251.842 341.176Z" fill="white" fill-opacity="0.85"/>
<path d="M331.202 342.659C330.421 342.659 329.724 342.525 329.111 342.256C328.501 341.987 328.018 341.614 327.662 341.136C327.31 340.655 327.12 340.098 327.094 339.466H328.878C328.901 339.811 329.016 340.11 329.224 340.364C329.437 340.614 329.713 340.807 330.054 340.943C330.395 341.08 330.774 341.148 331.19 341.148C331.649 341.148 332.054 341.068 332.406 340.909C332.762 340.75 333.041 340.528 333.241 340.244C333.442 339.956 333.543 339.625 333.543 339.25C333.543 338.86 333.442 338.517 333.241 338.222C333.045 337.922 332.755 337.687 332.372 337.517C331.993 337.347 331.535 337.261 330.997 337.261H330.014V335.83H330.997C331.429 335.83 331.808 335.752 332.134 335.597C332.463 335.441 332.721 335.225 332.906 334.949C333.092 334.669 333.185 334.341 333.185 333.966C333.185 333.606 333.103 333.294 332.94 333.028C332.781 332.759 332.554 332.549 332.259 332.398C331.967 332.246 331.622 332.17 331.224 332.17C330.846 332.17 330.491 332.241 330.162 332.381C329.836 332.517 329.571 332.714 329.366 332.972C329.162 333.225 329.052 333.53 329.037 333.886H327.338C327.357 333.258 327.543 332.705 327.895 332.227C328.251 331.75 328.721 331.377 329.304 331.108C329.887 330.839 330.535 330.705 331.247 330.705C331.993 330.705 332.637 330.85 333.179 331.142C333.724 331.43 334.145 331.814 334.44 332.295C334.74 332.777 334.887 333.303 334.884 333.875C334.887 334.527 334.705 335.08 334.338 335.534C333.974 335.989 333.49 336.294 332.884 336.449V336.54C333.656 336.657 334.255 336.964 334.679 337.46C335.107 337.956 335.319 338.572 335.315 339.307C335.319 339.947 335.141 340.521 334.781 341.028C334.425 341.536 333.938 341.936 333.321 342.227C332.704 342.515 331.997 342.659 331.202 342.659ZM341.514 342.693C340.616 342.689 339.849 342.453 339.213 341.983C338.577 341.513 338.09 340.83 337.753 339.932C337.416 339.034 337.247 337.953 337.247 336.688C337.247 335.426 337.416 334.348 337.753 333.455C338.094 332.561 338.582 331.879 339.219 331.409C339.859 330.939 340.624 330.705 341.514 330.705C342.404 330.705 343.168 330.941 343.804 331.415C344.44 331.884 344.927 332.566 345.264 333.46C345.605 334.35 345.776 335.426 345.776 336.688C345.776 337.956 345.607 339.04 345.27 339.938C344.933 340.831 344.446 341.515 343.81 341.989C343.173 342.458 342.408 342.693 341.514 342.693ZM341.514 341.176C342.302 341.176 342.918 340.792 343.361 340.023C343.808 339.254 344.031 338.142 344.031 336.688C344.031 335.722 343.929 334.905 343.724 334.239C343.524 333.568 343.234 333.061 342.855 332.716C342.48 332.367 342.033 332.193 341.514 332.193C340.73 332.193 340.115 332.58 339.668 333.352C339.221 334.125 338.995 335.237 338.991 336.688C338.991 337.657 339.092 338.477 339.293 339.148C339.497 339.814 339.787 340.32 340.162 340.665C340.537 341.006 340.988 341.176 341.514 341.176ZM351.842 342.693C350.945 342.689 350.178 342.453 349.541 341.983C348.905 341.513 348.418 340.83 348.081 339.932C347.744 339.034 347.575 337.953 347.575 336.688C347.575 335.426 347.744 334.348 348.081 333.455C348.422 332.561 348.911 331.879 349.547 331.409C350.187 330.939 350.952 330.705 351.842 330.705C352.732 330.705 353.496 330.941 354.132 331.415C354.768 331.884 355.255 332.566 355.592 333.46C355.933 334.35 356.104 335.426 356.104 336.688C356.104 337.956 355.935 339.04 355.598 339.938C355.261 340.831 354.774 341.515 354.138 341.989C353.501 342.458 352.736 342.693 351.842 342.693ZM351.842 341.176C352.63 341.176 353.246 340.792 353.689 340.023C354.136 339.254 354.359 338.142 354.359 336.688C354.359 335.722 354.257 334.905 354.053 334.239C353.852 333.568 353.562 333.061 353.183 332.716C352.808 332.367 352.361 332.193 351.842 332.193C351.058 332.193 350.443 332.58 349.996 333.352C349.549 334.125 349.323 335.237 349.32 336.688C349.32 337.657 349.42 338.477 349.621 339.148C349.825 339.814 350.115 340.32 350.49 340.665C350.865 341.006 351.316 341.176 351.842 341.176Z" fill="white" fill-opacity="0.85"/>
<path d="M427.75 340.227V338.807L432.778 330.864H433.898V332.955H433.188L429.591 338.648V338.739H436.483V340.227H427.75ZM433.267 342.5V339.795L433.278 339.148V330.864H434.943V342.5H433.267ZM442.514 342.693C441.616 342.689 440.849 342.453 440.213 341.983C439.577 341.513 439.09 340.83 438.753 339.932C438.416 339.034 438.247 337.953 438.247 336.688C438.247 335.426 438.416 334.348 438.753 333.455C439.094 332.561 439.582 331.879 440.219 331.409C440.859 330.939 441.624 330.705 442.514 330.705C443.404 330.705 444.168 330.941 444.804 331.415C445.44 331.884 445.927 332.566 446.264 333.46C446.605 334.35 446.776 335.426 446.776 336.688C446.776 337.956 446.607 339.04 446.27 339.938C445.933 340.831 445.446 341.515 444.81 341.989C444.173 342.458 443.408 342.693 442.514 342.693ZM442.514 341.176C443.302 341.176 443.918 340.792 444.361 340.023C444.808 339.254 445.031 338.142 445.031 336.688C445.031 335.722 444.929 334.905 444.724 334.239C444.524 333.568 444.234 333.061 443.855 332.716C443.48 332.367 443.033 332.193 442.514 332.193C441.73 332.193 441.115 332.58 440.668 333.352C440.221 334.125 439.995 335.237 439.991 336.688C439.991 337.657 440.092 338.477 440.293 339.148C440.497 339.814 440.787 340.32 441.162 340.665C441.537 341.006 441.988 341.176 442.514 341.176ZM452.842 342.693C451.945 342.689 451.178 342.453 450.541 341.983C449.905 341.513 449.418 340.83 449.081 339.932C448.744 339.034 448.575 337.953 448.575 336.688C448.575 335.426 448.744 334.348 449.081 333.455C449.422 332.561 449.911 331.879 450.547 331.409C451.187 330.939 451.952 330.705 452.842 330.705C453.732 330.705 454.496 330.941 455.132 331.415C455.768 331.884 456.255 332.566 456.592 333.46C456.933 334.35 457.104 335.426 457.104 336.688C457.104 337.956 456.935 339.04 456.598 339.938C456.261 340.831 455.774 341.515 455.138 341.989C454.501 342.458 453.736 342.693 452.842 342.693ZM452.842 341.176C453.63 341.176 454.246 340.792 454.689 340.023C455.136 339.254 455.359 338.142 455.359 336.688C455.359 335.722 455.257 334.905 455.053 334.239C454.852 333.568 454.562 333.061 454.183 332.716C453.808 332.367 453.361 332.193 452.842 332.193C452.058 332.193 451.443 332.58 450.996 333.352C450.549 334.125 450.323 335.237 450.32 336.688C450.32 337.657 450.42 338.477 450.621 339.148C450.825 339.814 451.115 340.32 451.49 340.665C451.865 341.006 452.316 341.176 452.842 341.176Z" fill="white" fill-opacity="0.85"/>
<path d="M532.382 342.659C531.67 342.659 531.03 342.523 530.462 342.25C529.897 341.973 529.446 341.595 529.109 341.114C528.772 340.633 528.592 340.083 528.57 339.466H530.274C530.316 339.966 530.537 340.377 530.939 340.699C531.34 341.021 531.821 341.182 532.382 341.182C532.829 341.182 533.225 341.08 533.57 340.875C533.918 340.667 534.191 340.381 534.388 340.017C534.589 339.653 534.689 339.239 534.689 338.773C534.689 338.299 534.587 337.877 534.382 337.506C534.178 337.134 533.895 336.843 533.536 336.631C533.179 336.419 532.77 336.311 532.308 336.307C531.956 336.307 531.602 336.367 531.246 336.489C530.89 336.61 530.602 336.769 530.382 336.966L528.774 336.727L529.428 330.864H535.825V332.369H530.888L530.518 335.625H530.587C530.814 335.405 531.115 335.222 531.49 335.074C531.869 334.926 532.274 334.852 532.706 334.852C533.414 334.852 534.045 335.021 534.598 335.358C535.155 335.695 535.592 336.155 535.911 336.739C536.232 337.318 536.392 337.985 536.388 338.739C536.392 339.492 536.221 340.165 535.876 340.756C535.536 341.347 535.062 341.812 534.456 342.153C533.854 342.491 533.162 342.659 532.382 342.659ZM542.514 342.693C541.616 342.689 540.849 342.453 540.213 341.983C539.577 341.513 539.09 340.83 538.753 339.932C538.416 339.034 538.247 337.953 538.247 336.688C538.247 335.426 538.416 334.348 538.753 333.455C539.094 332.561 539.582 331.879 540.219 331.409C540.859 330.939 541.624 330.705 542.514 330.705C543.404 330.705 544.168 330.941 544.804 331.415C545.44 331.884 545.927 332.566 546.264 333.46C546.605 334.35 546.776 335.426 546.776 336.688C546.776 337.956 546.607 339.04 546.27 339.938C545.933 340.831 545.446 341.515 544.81 341.989C544.173 342.458 543.408 342.693 542.514 342.693ZM542.514 341.176C543.302 341.176 543.918 340.792 544.361 340.023C544.808 339.254 545.031 338.142 545.031 336.688C545.031 335.722 544.929 334.905 544.724 334.239C544.524 333.568 544.234 333.061 543.855 332.716C543.48 332.367 543.033 332.193 542.514 332.193C541.73 332.193 541.115 332.58 540.668 333.352C540.221 334.125 539.995 335.237 539.991 336.688C539.991 337.657 540.092 338.477 540.293 339.148C540.497 339.814 540.787 340.32 541.162 340.665C541.537 341.006 541.988 341.176 542.514 341.176ZM552.842 342.693C551.945 342.689 551.178 342.453 550.541 341.983C549.905 341.513 549.418 340.83 549.081 339.932C548.744 339.034 548.575 337.953 548.575 336.688C548.575 335.426 548.744 334.348 549.081 333.455C549.422 332.561 549.911 331.879 550.547 331.409C551.187 330.939 551.952 330.705 552.842 330.705C553.732 330.705 554.496 330.941 555.132 331.415C555.768 331.884 556.255 332.566 556.592 333.46C556.933 334.35 557.104 335.426 557.104 336.688C557.104 337.956 556.935 339.04 556.598 339.938C556.261 340.831 555.774 341.515 555.138 341.989C554.501 342.458 553.736 342.693 552.842 342.693ZM552.842 341.176C553.63 341.176 554.246 340.792 554.689 340.023C555.136 339.254 555.359 338.142 555.359 336.688C555.359 335.722 555.257 334.905 555.053 334.239C554.852 333.568 554.562 333.061 554.183 332.716C553.808 332.367 553.361 332.193 552.842 332.193C552.058 332.193 551.443 332.58 550.996 333.352C550.549 334.125 550.323 335.237 550.32 336.688C550.32 337.657 550.42 338.477 550.621 339.148C550.825 339.814 551.115 340.32 551.49 340.665C551.865 341.006 552.316 341.176 552.842 341.176Z" fill="white" fill-opacity="0.85"/>
<defs>
<linearGradient id="paint0_linear_599_1158" x1="355" y1="152.5" x2="116.494" y2="152.5" gradientUnits="userSpaceOnUse">
<stop stop-color="#AC43ED"/>
<stop offset="1" stop-opacity="0"/>
</linearGradient>
<linearGradient id="paint1_linear_599_1158" x1="247" y1="212.5" x2="48" y2="212.5" gradientUnits="userSpaceOnUse">
<stop stop-color="#AC43ED"/>
<stop offset="1" stop-opacity="0"/>
</linearGradient>
<linearGradient id="paint2_linear_599_1158" x1="446" y1="272.5" x2="158.554" y2="287.669" gradientUnits="userSpaceOnUse">
<stop stop-color="#AC43ED"/>
<stop offset="1" stop-opacity="0"/>
</linearGradient>
</defs>
</svg>
