<svg width="737" height="286" viewBox="0 0 737 286" fill="none" xmlns="http://www.w3.org/2000/svg">
<path d="M69.1937 36.3542L66.0119 24.7178H67.4437L69.8755 34.1951H69.9891L72.4664 24.7178H74.0573L76.5346 34.1951H76.6482L79.0801 24.7178H80.5119L77.3301 36.3542H75.8755L73.3073 27.0815H73.2164L70.6482 36.3542H69.1937ZM84.9323 36.536C84.0914 36.536 83.366 36.3504 82.7562 35.9792C82.1501 35.6042 81.6823 35.0815 81.3528 34.411C81.027 33.7368 80.8641 32.9527 80.8641 32.0587C80.8641 31.1648 81.027 30.3769 81.3528 29.6951C81.6823 29.0095 82.1407 28.4754 82.7278 28.0928C83.3187 27.7065 84.0081 27.5133 84.796 27.5133C85.2505 27.5133 85.6994 27.589 86.1426 27.7406C86.5857 27.8921 86.9891 28.1383 87.3528 28.4792C87.7164 28.8163 88.0062 29.2633 88.2221 29.8201C88.438 30.3769 88.546 31.0625 88.546 31.8769V32.4451H81.8187V31.286H87.1823C87.1823 30.7936 87.0838 30.3542 86.8869 29.9678C86.6937 29.5815 86.4172 29.2765 86.0573 29.0531C85.7013 28.8296 85.2808 28.7178 84.796 28.7178C84.2619 28.7178 83.7997 28.8504 83.4096 29.1156C83.0232 29.3769 82.7259 29.7178 82.5176 30.1383C82.3092 30.5587 82.2051 31.0095 82.2051 31.4906V32.2633C82.2051 32.9224 82.3187 33.4811 82.546 33.9394C82.777 34.394 83.0971 34.7406 83.5062 34.9792C83.9153 35.214 84.3907 35.3315 84.9323 35.3315C85.2846 35.3315 85.6028 35.2822 85.8869 35.1837C86.1747 35.0815 86.4229 34.9299 86.6312 34.7292C86.8395 34.5246 87.0005 34.2709 87.1141 33.9678L88.4096 34.3315C88.2732 34.7709 88.0441 35.1572 87.7221 35.4906C87.4001 35.8201 87.0024 36.0777 86.5289 36.2633C86.0554 36.4451 85.5232 36.536 84.9323 36.536ZM94.2448 36.536C93.4039 36.536 92.6785 36.3504 92.0687 35.9792C91.4626 35.6042 90.9948 35.0815 90.6653 34.411C90.3395 33.7368 90.1766 32.9527 90.1766 32.0587C90.1766 31.1648 90.3395 30.3769 90.6653 29.6951C90.9948 29.0095 91.4532 28.4754 92.0403 28.0928C92.6312 27.7065 93.3206 27.5133 94.1085 27.5133C94.563 27.5133 95.0119 27.589 95.4551 27.7406C95.8982 27.8921 96.3016 28.1383 96.6653 28.4792C97.0289 28.8163 97.3187 29.2633 97.5346 29.8201C97.7505 30.3769 97.8585 31.0625 97.8585 31.8769V32.4451H91.1312V31.286H96.4948C96.4948 30.7936 96.3963 30.3542 96.1994 29.9678C96.0062 29.5815 95.7297 29.2765 95.3698 29.0531C95.0138 28.8296 94.5933 28.7178 94.1085 28.7178C93.5744 28.7178 93.1122 28.8504 92.7221 29.1156C92.3357 29.3769 92.0384 29.7178 91.8301 30.1383C91.6217 30.5587 91.5176 31.0095 91.5176 31.4906V32.2633C91.5176 32.9224 91.6312 33.4811 91.8585 33.9394C92.0895 34.394 92.4096 34.7406 92.8187 34.9792C93.2278 35.214 93.7032 35.3315 94.2448 35.3315C94.5971 35.3315 94.9153 35.2822 95.1994 35.1837C95.4872 35.0815 95.7354 34.9299 95.9437 34.7292C96.152 34.5246 96.313 34.2709 96.4266 33.9678L97.7221 34.3315C97.5857 34.7709 97.3566 35.1572 97.0346 35.4906C96.7126 35.8201 96.3149 36.0777 95.8414 36.2633C95.3679 36.4451 94.8357 36.536 94.2448 36.536ZM101.148 33.1724L101.126 31.5133H101.398L105.216 27.6269H106.876L102.807 31.7406H102.694L101.148 33.1724ZM99.8982 36.3542V24.7178H101.239V36.3542H99.8982ZM105.444 36.3542L102.035 32.036L102.989 31.1042L107.148 36.3542H105.444ZM117.17 24.7178V36.3542H115.76V26.1951H115.692L112.851 28.0815V26.6496L115.76 24.7178H117.17Z" fill="white"/>
<path d="M204.538 36.3542L201.356 24.7178H202.788L205.22 34.1951H205.333L207.811 24.7178H209.402L211.879 34.1951H211.992L214.424 24.7178H215.856L212.674 36.3542H211.22L208.652 27.0815H208.561L205.992 36.3542H204.538ZM220.277 36.536C219.436 36.536 218.71 36.3504 218.1 35.9792C217.494 35.6042 217.027 35.0815 216.697 34.411C216.371 33.7368 216.208 32.9527 216.208 32.0587C216.208 31.1648 216.371 30.3769 216.697 29.6951C217.027 29.0095 217.485 28.4754 218.072 28.0928C218.663 27.7065 219.352 27.5133 220.14 27.5133C220.595 27.5133 221.044 27.589 221.487 27.7406C221.93 27.8921 222.333 28.1383 222.697 28.4792C223.061 28.8163 223.35 29.2633 223.566 29.8201C223.782 30.3769 223.89 31.0625 223.89 31.8769V32.4451H217.163V31.286H222.527C222.527 30.7936 222.428 30.3542 222.231 29.9678C222.038 29.5815 221.761 29.2765 221.402 29.0531C221.045 28.8296 220.625 28.7178 220.14 28.7178C219.606 28.7178 219.144 28.8504 218.754 29.1156C218.367 29.3769 218.07 29.7178 217.862 30.1383C217.653 30.5587 217.549 31.0095 217.549 31.4906V32.2633C217.549 32.9224 217.663 33.4811 217.89 33.9394C218.121 34.394 218.441 34.7406 218.85 34.9792C219.259 35.214 219.735 35.3315 220.277 35.3315C220.629 35.3315 220.947 35.2822 221.231 35.1837C221.519 35.0815 221.767 34.9299 221.975 34.7292C222.184 34.5246 222.345 34.2709 222.458 33.9678L223.754 34.3315C223.617 34.7709 223.388 35.1572 223.066 35.4906C222.744 35.8201 222.347 36.0777 221.873 36.2633C221.4 36.4451 220.867 36.536 220.277 36.536ZM229.589 36.536C228.748 36.536 228.023 36.3504 227.413 35.9792C226.807 35.6042 226.339 35.0815 226.009 34.411C225.684 33.7368 225.521 32.9527 225.521 32.0587C225.521 31.1648 225.684 30.3769 226.009 29.6951C226.339 29.0095 226.797 28.4754 227.384 28.0928C227.975 27.7065 228.665 27.5133 229.453 27.5133C229.907 27.5133 230.356 27.589 230.799 27.7406C231.242 27.8921 231.646 28.1383 232.009 28.4792C232.373 28.8163 232.663 29.2633 232.879 29.8201C233.095 30.3769 233.203 31.0625 233.203 31.8769V32.4451H226.475V31.286H231.839C231.839 30.7936 231.741 30.3542 231.544 29.9678C231.35 29.5815 231.074 29.2765 230.714 29.0531C230.358 28.8296 229.937 28.7178 229.453 28.7178C228.919 28.7178 228.456 28.8504 228.066 29.1156C227.68 29.3769 227.383 29.7178 227.174 30.1383C226.966 30.5587 226.862 31.0095 226.862 31.4906V32.2633C226.862 32.9224 226.975 33.4811 227.203 33.9394C227.434 34.394 227.754 34.7406 228.163 34.9792C228.572 35.214 229.047 35.3315 229.589 35.3315C229.941 35.3315 230.259 35.2822 230.544 35.1837C230.831 35.0815 231.08 34.9299 231.288 34.7292C231.496 34.5246 231.657 34.2709 231.771 33.9678L233.066 34.3315C232.93 34.7709 232.701 35.1572 232.379 35.4906C232.057 35.8201 231.659 36.0777 231.186 36.2633C230.712 36.4451 230.18 36.536 229.589 36.536ZM236.492 33.1724L236.47 31.5133H236.742L240.561 27.6269H242.22L238.152 31.7406H238.038L236.492 33.1724ZM235.242 36.3542V24.7178H236.583V36.3542H235.242ZM240.788 36.3542L237.379 32.036L238.333 31.1042L242.492 36.3542H240.788ZM248.423 36.3542V35.3315L252.264 31.1269C252.714 30.6345 253.086 30.2065 253.377 29.8428C253.669 29.4754 253.885 29.1307 254.025 28.8087C254.169 28.483 254.241 28.1421 254.241 27.786C254.241 27.3769 254.143 27.0227 253.946 26.7235C253.752 26.4243 253.487 26.1932 253.15 26.0303C252.813 25.8674 252.434 25.786 252.014 25.786C251.567 25.786 251.177 25.8788 250.843 26.0644C250.514 26.2462 250.258 26.5019 250.076 26.8315C249.898 27.161 249.809 27.5474 249.809 27.9906H248.468C248.468 27.3087 248.625 26.7102 248.94 26.1951C249.254 25.6799 249.682 25.2784 250.224 24.9906C250.769 24.7027 251.381 24.5587 252.059 24.5587C252.741 24.5587 253.345 24.7027 253.872 24.9906C254.398 25.2784 254.811 25.6667 255.11 26.1553C255.41 26.644 255.559 27.1875 255.559 27.786C255.559 28.214 255.482 28.6326 255.326 29.0417C255.175 29.447 254.91 29.8996 254.531 30.3996C254.156 30.8959 253.635 31.5019 252.968 32.2178L250.355 35.0133V35.1042H255.764V36.3542H248.423Z" fill="white"/>
<path d="M342.632 36.3542L339.45 24.7178H340.882L343.314 34.1951H343.428L345.905 24.7178H347.496L349.973 34.1951H350.087L352.518 24.7178H353.95L350.768 36.3542H349.314L346.746 27.0815H346.655L344.087 36.3542H342.632ZM358.371 36.536C357.53 36.536 356.804 36.3504 356.195 35.9792C355.589 35.6042 355.121 35.0815 354.791 34.411C354.465 33.7368 354.303 32.9527 354.303 32.0587C354.303 31.1648 354.465 30.3769 354.791 29.6951C355.121 29.0095 355.579 28.4754 356.166 28.0928C356.757 27.7065 357.446 27.5133 358.234 27.5133C358.689 27.5133 359.138 27.589 359.581 27.7406C360.024 27.8921 360.428 28.1383 360.791 28.4792C361.155 28.8163 361.445 29.2633 361.661 29.8201C361.876 30.3769 361.984 31.0625 361.984 31.8769V32.4451H355.257V31.286H360.621C360.621 30.7936 360.522 30.3542 360.325 29.9678C360.132 29.5815 359.856 29.2765 359.496 29.0531C359.14 28.8296 358.719 28.7178 358.234 28.7178C357.7 28.7178 357.238 28.8504 356.848 29.1156C356.462 29.3769 356.164 29.7178 355.956 30.1383C355.748 30.5587 355.643 31.0095 355.643 31.4906V32.2633C355.643 32.9224 355.757 33.4811 355.984 33.9394C356.215 34.394 356.536 34.7406 356.945 34.9792C357.354 35.214 357.829 35.3315 358.371 35.3315C358.723 35.3315 359.041 35.2822 359.325 35.1837C359.613 35.0815 359.861 34.9299 360.07 34.7292C360.278 34.5246 360.439 34.2709 360.553 33.9678L361.848 34.3315C361.712 34.7709 361.482 35.1572 361.161 35.4906C360.839 35.8201 360.441 36.0777 359.967 36.2633C359.494 36.4451 358.962 36.536 358.371 36.536ZM367.683 36.536C366.842 36.536 366.117 36.3504 365.507 35.9792C364.901 35.6042 364.433 35.0815 364.104 34.411C363.778 33.7368 363.615 32.9527 363.615 32.0587C363.615 31.1648 363.778 30.3769 364.104 29.6951C364.433 29.0095 364.892 28.4754 365.479 28.0928C366.07 27.7065 366.759 27.5133 367.547 27.5133C368.001 27.5133 368.45 27.589 368.893 27.7406C369.337 27.8921 369.74 28.1383 370.104 28.4792C370.467 28.8163 370.757 29.2633 370.973 29.8201C371.189 30.3769 371.297 31.0625 371.297 31.8769V32.4451H364.57V31.286H369.933C369.933 30.7936 369.835 30.3542 369.638 29.9678C369.445 29.5815 369.168 29.2765 368.808 29.0531C368.452 28.8296 368.032 28.7178 367.547 28.7178C367.013 28.7178 366.551 28.8504 366.161 29.1156C365.774 29.3769 365.477 29.7178 365.268 30.1383C365.06 30.5587 364.956 31.0095 364.956 31.4906V32.2633C364.956 32.9224 365.07 33.4811 365.297 33.9394C365.528 34.394 365.848 34.7406 366.257 34.9792C366.666 35.214 367.142 35.3315 367.683 35.3315C368.036 35.3315 368.354 35.2822 368.638 35.1837C368.926 35.0815 369.174 34.9299 369.382 34.7292C369.59 34.5246 369.751 34.2709 369.865 33.9678L371.161 34.3315C371.024 34.7709 370.795 35.1572 370.473 35.4906C370.151 35.8201 369.753 36.0777 369.28 36.2633C368.806 36.4451 368.274 36.536 367.683 36.536ZM374.587 33.1724L374.564 31.5133H374.837L378.655 27.6269H380.314L376.246 31.7406H376.132L374.587 33.1724ZM373.337 36.3542V24.7178H374.678V36.3542H373.337ZM378.882 36.3542L375.473 32.036L376.428 31.1042L380.587 36.3542H378.882ZM390.449 36.5133C389.699 36.5133 389.03 36.3845 388.443 36.1269C387.86 35.8693 387.396 35.5114 387.051 35.0531C386.71 34.5909 386.525 34.0549 386.494 33.4451H387.926C387.956 33.8201 388.085 34.144 388.312 34.4167C388.54 34.6856 388.837 34.894 389.205 35.0417C389.572 35.1894 389.979 35.2633 390.426 35.2633C390.926 35.2633 391.369 35.1762 391.756 35.0019C392.142 34.8277 392.445 34.5852 392.665 34.2746C392.884 33.964 392.994 33.6042 392.994 33.1951C392.994 32.7671 392.888 32.3902 392.676 32.0644C392.464 31.7349 392.153 31.4773 391.744 31.2917C391.335 31.1061 390.835 31.0133 390.244 31.0133H389.312V29.7633H390.244C390.706 29.7633 391.112 29.6799 391.46 29.5133C391.813 29.3466 392.087 29.1118 392.284 28.8087C392.485 28.5057 392.585 28.1496 392.585 27.7406C392.585 27.3466 392.498 27.0038 392.324 26.7121C392.15 26.4205 391.903 26.1932 391.585 26.0303C391.271 25.8674 390.9 25.786 390.472 25.786C390.07 25.786 389.691 25.8599 389.335 26.0076C388.983 26.1515 388.695 26.3618 388.472 26.6383C388.248 26.911 388.127 27.2406 388.108 27.6269H386.744C386.767 27.0171 386.951 26.483 387.295 26.0246C387.64 25.5625 388.091 25.2027 388.648 24.9451C389.208 24.6875 389.824 24.5587 390.494 24.5587C391.214 24.5587 391.831 24.7046 392.347 24.9962C392.862 25.2841 393.258 25.6648 393.534 26.1383C393.811 26.6118 393.949 27.1231 393.949 27.6724C393.949 28.3277 393.777 28.8864 393.432 29.3485C393.091 29.8106 392.627 30.1307 392.04 30.3087V30.3996C392.775 30.5209 393.348 30.8334 393.761 31.3371C394.174 31.8371 394.381 32.4565 394.381 33.1951C394.381 33.8277 394.208 34.3959 393.864 34.8996C393.523 35.3996 393.057 35.7936 392.466 36.0815C391.875 36.3693 391.203 36.5133 390.449 36.5133Z" fill="white"/>
<path d="M480.679 36.3542L477.498 24.7178H478.929L481.361 34.1951H481.475L483.952 24.7178H485.543L488.02 34.1951H488.134L490.566 24.7178H491.998L488.816 36.3542H487.361L484.793 27.0815H484.702L482.134 36.3542H480.679ZM496.418 36.536C495.577 36.536 494.852 36.3504 494.242 35.9792C493.636 35.6042 493.168 35.0815 492.839 34.411C492.513 33.7368 492.35 32.9527 492.35 32.0587C492.35 31.1648 492.513 30.3769 492.839 29.6951C493.168 29.0095 493.626 28.4754 494.214 28.0928C494.804 27.7065 495.494 27.5133 496.282 27.5133C496.736 27.5133 497.185 27.589 497.628 27.7406C498.071 27.8921 498.475 28.1383 498.839 28.4792C499.202 28.8163 499.492 29.2633 499.708 29.8201C499.924 30.3769 500.032 31.0625 500.032 31.8769V32.4451H493.304V31.286H498.668C498.668 30.7936 498.57 30.3542 498.373 29.9678C498.179 29.5815 497.903 29.2765 497.543 29.0531C497.187 28.8296 496.767 28.7178 496.282 28.7178C495.748 28.7178 495.285 28.8504 494.895 29.1156C494.509 29.3769 494.212 29.7178 494.003 30.1383C493.795 30.5587 493.691 31.0095 493.691 31.4906V32.2633C493.691 32.9224 493.804 33.4811 494.032 33.9394C494.263 34.394 494.583 34.7406 494.992 34.9792C495.401 35.214 495.876 35.3315 496.418 35.3315C496.77 35.3315 497.089 35.2822 497.373 35.1837C497.66 35.0815 497.909 34.9299 498.117 34.7292C498.325 34.5246 498.486 34.2709 498.6 33.9678L499.895 34.3315C499.759 34.7709 499.53 35.1572 499.208 35.4906C498.886 35.8201 498.488 36.0777 498.015 36.2633C497.541 36.4451 497.009 36.536 496.418 36.536ZM505.731 36.536C504.89 36.536 504.164 36.3504 503.554 35.9792C502.948 35.6042 502.481 35.0815 502.151 34.411C501.825 33.7368 501.662 32.9527 501.662 32.0587C501.662 31.1648 501.825 30.3769 502.151 29.6951C502.481 29.0095 502.939 28.4754 503.526 28.0928C504.117 27.7065 504.806 27.5133 505.594 27.5133C506.049 27.5133 506.498 27.589 506.941 27.7406C507.384 27.8921 507.787 28.1383 508.151 28.4792C508.515 28.8163 508.804 29.2633 509.02 29.8201C509.236 30.3769 509.344 31.0625 509.344 31.8769V32.4451H502.617V31.286H507.981C507.981 30.7936 507.882 30.3542 507.685 29.9678C507.492 29.5815 507.215 29.2765 506.856 29.0531C506.5 28.8296 506.079 28.7178 505.594 28.7178C505.06 28.7178 504.598 28.8504 504.208 29.1156C503.821 29.3769 503.524 29.7178 503.316 30.1383C503.107 30.5587 503.003 31.0095 503.003 31.4906V32.2633C503.003 32.9224 503.117 33.4811 503.344 33.9394C503.575 34.394 503.895 34.7406 504.304 34.9792C504.714 35.214 505.189 35.3315 505.731 35.3315C506.083 35.3315 506.401 35.2822 506.685 35.1837C506.973 35.0815 507.221 34.9299 507.429 34.7292C507.638 34.5246 507.799 34.2709 507.912 33.9678L509.208 34.3315C509.071 34.7709 508.842 35.1572 508.52 35.4906C508.198 35.8201 507.801 36.0777 507.327 36.2633C506.854 36.4451 506.321 36.536 505.731 36.536ZM512.634 33.1724L512.611 31.5133H512.884L516.702 27.6269H518.361L514.293 31.7406H514.179L512.634 33.1724ZM511.384 36.3542V24.7178H512.725V36.3542H511.384ZM516.929 36.3542L513.52 32.036L514.475 31.1042L518.634 36.3542H516.929ZM528.201 36.5133C527.534 36.5133 526.934 36.3807 526.4 36.1156C525.866 35.8504 525.437 35.4868 525.116 35.0246C524.794 34.5625 524.617 34.036 524.587 33.4451H525.951C526.004 33.9716 526.242 34.4072 526.667 34.7519C527.095 35.0928 527.606 35.2633 528.201 35.2633C528.678 35.2633 529.102 35.1515 529.473 34.9281C529.848 34.7046 530.142 34.3977 530.354 34.0076C530.57 33.6137 530.678 33.1686 530.678 32.6724C530.678 32.1648 530.566 31.7121 530.343 31.3144C530.123 30.9129 529.82 30.5966 529.434 30.3656C529.047 30.1345 528.606 30.0171 528.11 30.0133C527.754 30.0095 527.388 30.0644 527.013 30.1781C526.638 30.2879 526.33 30.4299 526.087 30.6042L524.769 30.4451L525.473 24.7178H531.519V25.9678H526.655L526.246 29.3996H526.314C526.553 29.2102 526.852 29.0531 527.212 28.9281C527.572 28.8031 527.947 28.7406 528.337 28.7406C529.049 28.7406 529.684 28.911 530.241 29.2519C530.801 29.589 531.241 30.0512 531.559 30.6383C531.881 31.2254 532.042 31.8959 532.042 32.6496C532.042 33.3921 531.875 34.0549 531.542 34.6383C531.212 35.2178 530.758 35.6762 530.178 36.0133C529.598 36.3466 528.939 36.5133 528.201 36.5133Z" fill="white"/>
<path d="M619.024 36.3542L615.842 24.7178H617.274L619.705 34.1951H619.819L622.296 24.7178H623.887L626.365 34.1951H626.478L628.91 24.7178H630.342L627.16 36.3542H625.705L623.137 27.0815H623.046L620.478 36.3542H619.024ZM634.762 36.536C633.921 36.536 633.196 36.3504 632.586 35.9792C631.98 35.6042 631.512 35.0815 631.183 34.411C630.857 33.7368 630.694 32.9527 630.694 32.0587C630.694 31.1648 630.857 30.3769 631.183 29.6951C631.512 29.0095 631.971 28.4754 632.558 28.0928C633.149 27.7065 633.838 27.5133 634.626 27.5133C635.08 27.5133 635.529 27.589 635.973 27.7406C636.416 27.8921 636.819 28.1383 637.183 28.4792C637.546 28.8163 637.836 29.2633 638.052 29.8201C638.268 30.3769 638.376 31.0625 638.376 31.8769V32.4451H631.649V31.286H637.012C637.012 30.7936 636.914 30.3542 636.717 29.9678C636.524 29.5815 636.247 29.2765 635.887 29.0531C635.531 28.8296 635.111 28.7178 634.626 28.7178C634.092 28.7178 633.63 28.8504 633.24 29.1156C632.853 29.3769 632.556 29.7178 632.348 30.1383C632.139 30.5587 632.035 31.0095 632.035 31.4906V32.2633C632.035 32.9224 632.149 33.4811 632.376 33.9394C632.607 34.394 632.927 34.7406 633.336 34.9792C633.745 35.214 634.221 35.3315 634.762 35.3315C635.115 35.3315 635.433 35.2822 635.717 35.1837C636.005 35.0815 636.253 34.9299 636.461 34.7292C636.669 34.5246 636.83 34.2709 636.944 33.9678L638.24 34.3315C638.103 34.7709 637.874 35.1572 637.552 35.4906C637.23 35.8201 636.832 36.0777 636.359 36.2633C635.885 36.4451 635.353 36.536 634.762 36.536ZM644.075 36.536C643.234 36.536 642.508 36.3504 641.899 35.9792C641.293 35.6042 640.825 35.0815 640.495 34.411C640.169 33.7368 640.007 32.9527 640.007 32.0587C640.007 31.1648 640.169 30.3769 640.495 29.6951C640.825 29.0095 641.283 28.4754 641.87 28.0928C642.461 27.7065 643.151 27.5133 643.938 27.5133C644.393 27.5133 644.842 27.589 645.285 27.7406C645.728 27.8921 646.132 28.1383 646.495 28.4792C646.859 28.8163 647.149 29.2633 647.365 29.8201C647.58 30.3769 647.688 31.0625 647.688 31.8769V32.4451H640.961V31.286H646.325C646.325 30.7936 646.226 30.3542 646.029 29.9678C645.836 29.5815 645.56 29.2765 645.2 29.0531C644.844 28.8296 644.423 28.7178 643.938 28.7178C643.404 28.7178 642.942 28.8504 642.552 29.1156C642.166 29.3769 641.868 29.7178 641.66 30.1383C641.452 30.5587 641.348 31.0095 641.348 31.4906V32.2633C641.348 32.9224 641.461 33.4811 641.688 33.9394C641.919 34.394 642.24 34.7406 642.649 34.9792C643.058 35.214 643.533 35.3315 644.075 35.3315C644.427 35.3315 644.745 35.2822 645.029 35.1837C645.317 35.0815 645.565 34.9299 645.774 34.7292C645.982 34.5246 646.143 34.2709 646.257 33.9678L647.552 34.3315C647.416 34.7709 647.187 35.1572 646.865 35.4906C646.543 35.8201 646.145 36.0777 645.671 36.2633C645.198 36.4451 644.666 36.536 644.075 36.536ZM650.978 33.1724L650.955 31.5133H651.228L655.046 27.6269H656.705L652.637 31.7406H652.524L650.978 33.1724ZM649.728 36.3542V24.7178H651.069V36.3542H649.728ZM655.274 36.3542L651.865 32.036L652.819 31.1042L656.978 36.3542H655.274ZM666.772 36.5133C666.295 36.5057 665.818 36.4148 665.34 36.2406C664.863 36.0663 664.428 35.7727 664.034 35.3599C663.64 34.9432 663.323 34.3807 663.085 33.6724C662.846 32.9602 662.727 32.0663 662.727 30.9906C662.727 29.9602 662.823 29.0474 663.017 28.2519C663.21 27.4527 663.49 26.7803 663.857 26.2349C664.225 25.6856 664.668 25.269 665.187 24.9849C665.71 24.7008 666.299 24.5587 666.954 24.5587C667.606 24.5587 668.185 24.6894 668.693 24.9508C669.204 25.2084 669.621 25.5682 669.943 26.0303C670.265 26.4924 670.473 27.0246 670.568 27.6269H669.181C669.053 27.1042 668.803 26.6705 668.431 26.3258C668.06 25.9811 667.568 25.8087 666.954 25.8087C666.053 25.8087 665.342 26.2008 664.823 26.9849C664.308 27.769 664.049 28.8693 664.045 30.286H664.136C664.348 29.964 664.6 29.6894 664.892 29.4621C665.187 29.2311 665.513 29.0531 665.869 28.9281C666.225 28.8031 666.602 28.7406 666.999 28.7406C667.666 28.7406 668.276 28.9072 668.829 29.2406C669.382 29.5701 669.825 30.0265 670.159 30.6099C670.492 31.1894 670.659 31.8542 670.659 32.6042C670.659 33.3239 670.498 33.983 670.176 34.5815C669.854 35.1762 669.401 35.6496 668.818 36.0019C668.238 36.3504 667.556 36.5209 666.772 36.5133ZM666.772 35.2633C667.249 35.2633 667.678 35.144 668.056 34.9053C668.439 34.6667 668.74 34.3466 668.96 33.9451C669.183 33.5436 669.295 33.0966 669.295 32.6042C669.295 32.1231 669.187 31.6856 668.971 31.2917C668.759 30.894 668.465 30.5777 668.09 30.3428C667.719 30.108 667.295 29.9906 666.818 29.9906C666.458 29.9906 666.123 30.0625 665.812 30.2065C665.501 30.3466 665.229 30.5398 664.994 30.786C664.763 31.0322 664.581 31.3144 664.448 31.6326C664.316 31.947 664.249 32.2784 664.249 32.6269C664.249 33.089 664.357 33.5209 664.573 33.9224C664.793 34.3239 665.092 34.6477 665.471 34.894C665.854 35.1402 666.287 35.2633 666.772 35.2633Z" fill="white"/>
<rect x="65.3116" y="74.9815" width="101.023" height="22.7368" rx="11.3684" fill="url(#paint0_linear_342_421)"/>
<rect x="65.4782" y="116.6" width="209.982" height="23.7371" rx="11.8686" fill="url(#paint1_linear_342_421)"/>
<rect x="158.363" y="158.824" width="239.197" height="23.7371" rx="11.8686" fill="url(#paint2_linear_342_421)"/>
<rect x="275.461" y="201.048" width="257.457" height="21.9112" rx="10.9556" fill="url(#paint3_linear_342_421)"/>
<rect x="397.798" y="241.447" width="273.89" height="21.9112" rx="10.9556" fill="url(#paint4_linear_342_421)"/>
<defs>
<linearGradient id="paint0_linear_342_421" x1="166.334" y1="86.3499" x2="87.8505" y2="86.3499" gradientUnits="userSpaceOnUse">
<stop stop-color="#DC57A0"/>
<stop offset="1" stop-opacity="0"/>
</linearGradient>
<linearGradient id="paint1_linear_342_421" x1="275.461" y1="128.469" x2="112.327" y2="128.469" gradientUnits="userSpaceOnUse">
<stop stop-color="#DC57A0"/>
<stop offset="1" stop-opacity="0"/>
</linearGradient>
<linearGradient id="paint2_linear_342_421" x1="397.561" y1="170.693" x2="211.73" y2="170.693" gradientUnits="userSpaceOnUse">
<stop stop-color="#DC57A0"/>
<stop offset="1" stop-opacity="0"/>
</linearGradient>
<linearGradient id="paint3_linear_342_421" x1="532.917" y1="212.004" x2="332.901" y2="212.004" gradientUnits="userSpaceOnUse">
<stop stop-color="#DC57A0"/>
<stop offset="1" stop-opacity="0"/>
</linearGradient>
<linearGradient id="paint4_linear_342_421" x1="671.688" y1="252.402" x2="458.905" y2="252.402" gradientUnits="userSpaceOnUse">
<stop stop-color="#DC57A0"/>
<stop offset="1" stop-opacity="0"/>
</linearGradient>
</defs>
</svg>
